%TF.GenerationSoftware,KiCad,Pcbnew,8.0.4*%
%TF.CreationDate,2025-02-17T12:27:47-05:00*%
%TF.ProjectId,VCO_MauriceO,56434f5f-4d61-4757-9269-63654f2e6b69,rev?*%
%TF.SameCoordinates,Original*%
%TF.FileFunction,Soldermask,Bot*%
%TF.FilePolarity,Negative*%
%FSLAX46Y46*%
G04 Gerber Fmt 4.6, Leading zero omitted, Abs format (unit mm)*
G04 Created by KiCad (PCBNEW 8.0.4) date 2025-02-17 12:27:47*
%MOMM*%
%LPD*%
G01*
G04 APERTURE LIST*
%ADD10R,1.800000X1.800000*%
%ADD11C,1.800000*%
%ADD12C,1.600000*%
%ADD13O,1.600000X1.600000*%
%ADD14R,1.905000X2.000000*%
%ADD15O,1.905000X2.000000*%
%ADD16R,1.700000X1.700000*%
%ADD17O,1.700000X1.700000*%
%ADD18R,1.600000X1.600000*%
%ADD19R,2.400000X1.600000*%
%ADD20O,2.400000X1.600000*%
%ADD21R,1.500000X1.500000*%
%ADD22C,1.500000*%
%ADD23C,3.600000*%
%ADD24C,5.500000*%
%ADD25R,2.200000X2.200000*%
%ADD26O,2.200000X2.200000*%
G04 APERTURE END LIST*
D10*
%TO.C,RV1.5*%
X199000000Y-106000000D03*
D11*
X201500000Y-106000000D03*
X204000000Y-106000000D03*
%TD*%
D12*
%TO.C,R12*%
X197880000Y-97000000D03*
D13*
X213120000Y-97000000D03*
%TD*%
D12*
%TO.C,R11*%
X196380000Y-90000000D03*
D13*
X211620000Y-90000000D03*
%TD*%
D10*
%TO.C,D3*%
X209725000Y-83500000D03*
D11*
X212265000Y-83500000D03*
%TD*%
D12*
%TO.C,C5*%
X193000000Y-75000000D03*
X198000000Y-75000000D03*
%TD*%
D14*
%TO.C,U1*%
X116420000Y-68000000D03*
D15*
X118960000Y-68000000D03*
X121500000Y-68000000D03*
%TD*%
D16*
%TO.C,J2*%
X211000000Y-46500000D03*
D17*
X211000000Y-49040000D03*
X211000000Y-51580000D03*
X211000000Y-54120000D03*
X211000000Y-56660000D03*
X211000000Y-59200000D03*
X211000000Y-61740000D03*
X211000000Y-64280000D03*
%TD*%
D18*
%TO.C,C3*%
X110699775Y-55350000D03*
D12*
X112699775Y-55350000D03*
%TD*%
D19*
%TO.C,U3*%
X152500000Y-83420000D03*
D20*
X152500000Y-85960000D03*
X152500000Y-88500000D03*
X152500000Y-91040000D03*
X152500000Y-93580000D03*
X152500000Y-96120000D03*
X152500000Y-98660000D03*
X160120000Y-98660000D03*
X160120000Y-96120000D03*
X160120000Y-93580000D03*
X160120000Y-91040000D03*
X160120000Y-88500000D03*
X160120000Y-85960000D03*
X160120000Y-83420000D03*
%TD*%
D21*
%TO.C,Q1*%
X120950000Y-104450000D03*
D22*
X123490000Y-104450000D03*
X126030000Y-104450000D03*
%TD*%
D12*
%TO.C,R2*%
X116540000Y-60100000D03*
D13*
X131780000Y-60100000D03*
%TD*%
D12*
%TO.C,C1*%
X130000000Y-67500000D03*
X135000000Y-67500000D03*
%TD*%
%TO.C,R9*%
X184880000Y-65000000D03*
D13*
X200120000Y-65000000D03*
%TD*%
D19*
%TO.C,U2*%
X140300000Y-98125000D03*
D20*
X140300000Y-95585000D03*
X140300000Y-93045000D03*
X140300000Y-90505000D03*
X140300000Y-87965000D03*
X140300000Y-85425000D03*
X140300000Y-82885000D03*
X132680000Y-82885000D03*
X132680000Y-85425000D03*
X132680000Y-87965000D03*
X132680000Y-90505000D03*
X132680000Y-93045000D03*
X132680000Y-95585000D03*
X132680000Y-98125000D03*
%TD*%
D23*
%TO.C,H1*%
X86500000Y-37000000D03*
D24*
X86500000Y-37000000D03*
%TD*%
D23*
%TO.C,H2*%
X86500000Y-108500000D03*
D24*
X86500000Y-108500000D03*
%TD*%
D19*
%TO.C,U5*%
X152700000Y-43875000D03*
D20*
X152700000Y-46415000D03*
X152700000Y-48955000D03*
X152700000Y-51495000D03*
X152700000Y-54035000D03*
X152700000Y-56575000D03*
X152700000Y-59115000D03*
X160320000Y-59115000D03*
X160320000Y-56575000D03*
X160320000Y-54035000D03*
X160320000Y-51495000D03*
X160320000Y-48955000D03*
X160320000Y-46415000D03*
X160320000Y-43875000D03*
%TD*%
D12*
%TO.C,R8*%
X166880000Y-59500000D03*
D13*
X182120000Y-59500000D03*
%TD*%
D23*
%TO.C,H3*%
X213500000Y-37000000D03*
D24*
X213500000Y-37000000D03*
%TD*%
D25*
%TO.C,D2*%
X117920000Y-50000000D03*
D26*
X128080000Y-50000000D03*
%TD*%
D18*
%TO.C,C2*%
X110699775Y-48800000D03*
D12*
X112699775Y-48800000D03*
%TD*%
%TO.C,R4*%
X171880000Y-97500000D03*
D13*
X187120000Y-97500000D03*
%TD*%
D12*
%TO.C,R10*%
X159880000Y-66500000D03*
D13*
X175120000Y-66500000D03*
%TD*%
D19*
%TO.C,U6*%
X189700000Y-43875000D03*
D20*
X189700000Y-46415000D03*
X189700000Y-48955000D03*
X189700000Y-51495000D03*
X189700000Y-54035000D03*
X189700000Y-56575000D03*
X189700000Y-59115000D03*
X197320000Y-59115000D03*
X197320000Y-56575000D03*
X197320000Y-54035000D03*
X197320000Y-51495000D03*
X197320000Y-48955000D03*
X197320000Y-46415000D03*
X197320000Y-43875000D03*
%TD*%
D12*
%TO.C,R5*%
X172380000Y-103500000D03*
D13*
X187620000Y-103500000D03*
%TD*%
D12*
%TO.C,R3*%
X172380000Y-91500000D03*
D13*
X187620000Y-91500000D03*
%TD*%
D25*
%TO.C,D1*%
X117920000Y-45000000D03*
D26*
X128080000Y-45000000D03*
%TD*%
D12*
%TO.C,R7*%
X167380000Y-54000000D03*
D13*
X182620000Y-54000000D03*
%TD*%
D12*
%TO.C,R1*%
X117880000Y-55000000D03*
D13*
X133120000Y-55000000D03*
%TD*%
D19*
%TO.C,U4*%
X113700000Y-82375000D03*
D20*
X113700000Y-84915000D03*
X113700000Y-87455000D03*
X113700000Y-89995000D03*
X113700000Y-92535000D03*
X113700000Y-95075000D03*
X113700000Y-97615000D03*
X121320000Y-97615000D03*
X121320000Y-95075000D03*
X121320000Y-92535000D03*
X121320000Y-89995000D03*
X121320000Y-87455000D03*
X121320000Y-84915000D03*
X121320000Y-82375000D03*
%TD*%
D12*
%TO.C,C4*%
X180500000Y-84000000D03*
X185500000Y-84000000D03*
%TD*%
D16*
%TO.C,J1*%
X90500000Y-46460000D03*
D17*
X90500000Y-49000000D03*
X90500000Y-51540000D03*
X90500000Y-54080000D03*
X90500000Y-56620000D03*
X90500000Y-59160000D03*
X90500000Y-61700000D03*
X90500000Y-64240000D03*
%TD*%
D23*
%TO.C,H4*%
X213500000Y-108500000D03*
D24*
X213500000Y-108500000D03*
%TD*%
D12*
%TO.C,R6*%
X167880000Y-44500000D03*
D13*
X183120000Y-44500000D03*
%TD*%
M02*
