M48
; DRILL file {KiCad 8.0.4} date 2025-02-17T12:27:52-0500
; FORMAT={-:-/ absolute / inch / decimal}
; #@! TF.CreationDate,2025-02-17T12:27:52-05:00
; #@! TF.GenerationSoftware,Kicad,Pcbnew,8.0.4
; #@! TF.FileFunction,Plated,1,2,PTH
FMAT,2
INCH
; #@! TA.AperFunction,Plated,PTH,ViaDrill
T1C0.0118
; #@! TA.AperFunction,Plated,PTH,ComponentDrill
T2C0.0315
; #@! TA.AperFunction,Plated,PTH,ComponentDrill
T3C0.0354
; #@! TA.AperFunction,Plated,PTH,ComponentDrill
T4C0.0394
; #@! TA.AperFunction,Plated,PTH,ComponentDrill
T5C0.0433
; #@! TA.AperFunction,Plated,PTH,ComponentDrill
T6C0.1260
%
G90
G05
T1
X5.2165Y-2.874
X5.3937Y-2.7756
X5.4331Y-2.874
X5.9252Y-1.6339
X6.2008Y-2.9331
X6.3189Y-3.1496
X6.4173Y-2.7756
X6.5157Y-2.9331
X7.0472Y-2.5591
X7.1063Y-1.9094
X7.3819Y-2.6378
X7.4803Y-1.6142
X8.1299Y-2.6378
T2
X4.3583Y-1.9213
X4.3583Y-2.1791
X4.437Y-1.9213
X4.437Y-2.1791
X4.4764Y-3.2431
X4.4764Y-3.3431
X4.4764Y-3.4431
X4.4764Y-3.5431
X4.4764Y-3.6431
X4.4764Y-3.7431
X4.4764Y-3.8431
X4.5882Y-2.3661
X4.6409Y-2.1654
X4.7618Y-4.1122
X4.7764Y-3.2431
X4.7764Y-3.3431
X4.7764Y-3.4431
X4.7764Y-3.5431
X4.7764Y-3.6431
X4.7764Y-3.7431
X4.7764Y-3.8431
X4.8618Y-4.1122
X4.9618Y-4.1122
X5.1181Y-2.6575
X5.1882Y-2.3661
X5.2236Y-3.2632
X5.2236Y-3.3632
X5.2236Y-3.4632
X5.2236Y-3.5632
X5.2236Y-3.6632
X5.2236Y-3.7632
X5.2236Y-3.8632
X5.2409Y-2.1654
X5.315Y-2.6575
X5.5236Y-3.2632
X5.5236Y-3.3632
X5.5236Y-3.4632
X5.5236Y-3.5632
X5.5236Y-3.6632
X5.5236Y-3.7632
X5.5236Y-3.8632
X6.0039Y-3.2843
X6.0039Y-3.3843
X6.0039Y-3.4843
X6.0039Y-3.5843
X6.0039Y-3.6843
X6.0039Y-3.7843
X6.0039Y-3.8843
X6.0118Y-1.7274
X6.0118Y-1.8274
X6.0118Y-1.9274
X6.0118Y-2.0274
X6.0118Y-2.1274
X6.0118Y-2.2274
X6.0118Y-2.3274
X6.2945Y-2.6181
X6.3039Y-3.2843
X6.3039Y-3.3843
X6.3039Y-3.4843
X6.3039Y-3.5843
X6.3039Y-3.6843
X6.3039Y-3.7843
X6.3039Y-3.8843
X6.3118Y-1.7274
X6.3118Y-1.8274
X6.3118Y-1.9274
X6.3118Y-2.0274
X6.3118Y-2.1274
X6.3118Y-2.2274
X6.3118Y-2.3274
X6.5701Y-2.3425
X6.5898Y-2.126
X6.6094Y-1.752
X6.7669Y-3.8386
X6.7866Y-3.6024
X6.7866Y-4.0748
X6.8945Y-2.6181
X7.1063Y-3.3071
X7.1701Y-2.3425
X7.1898Y-2.126
X7.2094Y-1.752
X7.2787Y-2.5591
X7.3031Y-3.3071
X7.3669Y-3.8386
X7.3866Y-3.6024
X7.3866Y-4.0748
X7.4685Y-1.7274
X7.4685Y-1.8274
X7.4685Y-1.9274
X7.4685Y-2.0274
X7.4685Y-2.1274
X7.4685Y-2.2274
X7.4685Y-2.3274
X7.5984Y-2.9528
X7.7315Y-3.5433
X7.7685Y-1.7274
X7.7685Y-1.8274
X7.7685Y-1.9274
X7.7685Y-2.0274
X7.7685Y-2.1274
X7.7685Y-2.2274
X7.7685Y-2.3274
X7.7906Y-3.8189
X7.7953Y-2.9528
X7.8787Y-2.5591
X8.3315Y-3.5433
X8.3906Y-3.8189
T3
X8.2569Y-3.2874
X8.3569Y-3.2874
T4
X3.563Y-1.8291
X3.563Y-1.9291
X3.563Y-2.0291
X3.563Y-2.1291
X3.563Y-2.2291
X3.563Y-2.3291
X3.563Y-2.4291
X3.563Y-2.5291
X7.8346Y-4.1732
X7.9331Y-4.1732
X8.0315Y-4.1732
X8.3071Y-1.8307
X8.3071Y-1.9307
X8.3071Y-2.0307
X8.3071Y-2.1307
X8.3071Y-2.2307
X8.3071Y-2.3307
X8.3071Y-2.4307
X8.3071Y-2.5307
T5
X4.5835Y-2.6772
X4.6425Y-1.7717
X4.6425Y-1.9685
X4.6835Y-2.6772
X4.7835Y-2.6772
X5.0425Y-1.7717
X5.0425Y-1.9685
T6
X3.4055Y-1.4567
X3.4055Y-4.2717
X8.4055Y-1.4567
X8.4055Y-4.2717
M30
