%TF.GenerationSoftware,KiCad,Pcbnew,8.0.4*%
%TF.CreationDate,2025-02-17T12:27:47-05:00*%
%TF.ProjectId,VCO_MauriceO,56434f5f-4d61-4757-9269-63654f2e6b69,rev?*%
%TF.SameCoordinates,Original*%
%TF.FileFunction,Legend,Top*%
%TF.FilePolarity,Positive*%
%FSLAX46Y46*%
G04 Gerber Fmt 4.6, Leading zero omitted, Abs format (unit mm)*
G04 Created by KiCad (PCBNEW 8.0.4) date 2025-02-17 12:27:47*
%MOMM*%
%LPD*%
G01*
G04 APERTURE LIST*
%ADD10C,0.100000*%
%ADD11C,0.500000*%
%ADD12C,0.150000*%
%ADD13C,0.120000*%
G04 APERTURE END LIST*
D10*
X87303884Y-99872419D02*
X87303884Y-98872419D01*
X87303884Y-98872419D02*
X87637217Y-99586704D01*
X87637217Y-99586704D02*
X87970550Y-98872419D01*
X87970550Y-98872419D02*
X87970550Y-99872419D01*
X88875312Y-99872419D02*
X88875312Y-99348609D01*
X88875312Y-99348609D02*
X88827693Y-99253371D01*
X88827693Y-99253371D02*
X88732455Y-99205752D01*
X88732455Y-99205752D02*
X88541979Y-99205752D01*
X88541979Y-99205752D02*
X88446741Y-99253371D01*
X88875312Y-99824800D02*
X88780074Y-99872419D01*
X88780074Y-99872419D02*
X88541979Y-99872419D01*
X88541979Y-99872419D02*
X88446741Y-99824800D01*
X88446741Y-99824800D02*
X88399122Y-99729561D01*
X88399122Y-99729561D02*
X88399122Y-99634323D01*
X88399122Y-99634323D02*
X88446741Y-99539085D01*
X88446741Y-99539085D02*
X88541979Y-99491466D01*
X88541979Y-99491466D02*
X88780074Y-99491466D01*
X88780074Y-99491466D02*
X88875312Y-99443847D01*
X89780074Y-99205752D02*
X89780074Y-99872419D01*
X89351503Y-99205752D02*
X89351503Y-99729561D01*
X89351503Y-99729561D02*
X89399122Y-99824800D01*
X89399122Y-99824800D02*
X89494360Y-99872419D01*
X89494360Y-99872419D02*
X89637217Y-99872419D01*
X89637217Y-99872419D02*
X89732455Y-99824800D01*
X89732455Y-99824800D02*
X89780074Y-99777180D01*
X90256265Y-99872419D02*
X90256265Y-99205752D01*
X90256265Y-99396228D02*
X90303884Y-99300990D01*
X90303884Y-99300990D02*
X90351503Y-99253371D01*
X90351503Y-99253371D02*
X90446741Y-99205752D01*
X90446741Y-99205752D02*
X90541979Y-99205752D01*
X90875313Y-99872419D02*
X90875313Y-99205752D01*
X90875313Y-98872419D02*
X90827694Y-98920038D01*
X90827694Y-98920038D02*
X90875313Y-98967657D01*
X90875313Y-98967657D02*
X90922932Y-98920038D01*
X90922932Y-98920038D02*
X90875313Y-98872419D01*
X90875313Y-98872419D02*
X90875313Y-98967657D01*
X91780074Y-99824800D02*
X91684836Y-99872419D01*
X91684836Y-99872419D02*
X91494360Y-99872419D01*
X91494360Y-99872419D02*
X91399122Y-99824800D01*
X91399122Y-99824800D02*
X91351503Y-99777180D01*
X91351503Y-99777180D02*
X91303884Y-99681942D01*
X91303884Y-99681942D02*
X91303884Y-99396228D01*
X91303884Y-99396228D02*
X91351503Y-99300990D01*
X91351503Y-99300990D02*
X91399122Y-99253371D01*
X91399122Y-99253371D02*
X91494360Y-99205752D01*
X91494360Y-99205752D02*
X91684836Y-99205752D01*
X91684836Y-99205752D02*
X91780074Y-99253371D01*
X92589598Y-99824800D02*
X92494360Y-99872419D01*
X92494360Y-99872419D02*
X92303884Y-99872419D01*
X92303884Y-99872419D02*
X92208646Y-99824800D01*
X92208646Y-99824800D02*
X92161027Y-99729561D01*
X92161027Y-99729561D02*
X92161027Y-99348609D01*
X92161027Y-99348609D02*
X92208646Y-99253371D01*
X92208646Y-99253371D02*
X92303884Y-99205752D01*
X92303884Y-99205752D02*
X92494360Y-99205752D01*
X92494360Y-99205752D02*
X92589598Y-99253371D01*
X92589598Y-99253371D02*
X92637217Y-99348609D01*
X92637217Y-99348609D02*
X92637217Y-99443847D01*
X92637217Y-99443847D02*
X92161027Y-99539085D01*
X94161027Y-99348609D02*
X94303884Y-99396228D01*
X94303884Y-99396228D02*
X94351503Y-99443847D01*
X94351503Y-99443847D02*
X94399122Y-99539085D01*
X94399122Y-99539085D02*
X94399122Y-99681942D01*
X94399122Y-99681942D02*
X94351503Y-99777180D01*
X94351503Y-99777180D02*
X94303884Y-99824800D01*
X94303884Y-99824800D02*
X94208646Y-99872419D01*
X94208646Y-99872419D02*
X93827694Y-99872419D01*
X93827694Y-99872419D02*
X93827694Y-98872419D01*
X93827694Y-98872419D02*
X94161027Y-98872419D01*
X94161027Y-98872419D02*
X94256265Y-98920038D01*
X94256265Y-98920038D02*
X94303884Y-98967657D01*
X94303884Y-98967657D02*
X94351503Y-99062895D01*
X94351503Y-99062895D02*
X94351503Y-99158133D01*
X94351503Y-99158133D02*
X94303884Y-99253371D01*
X94303884Y-99253371D02*
X94256265Y-99300990D01*
X94256265Y-99300990D02*
X94161027Y-99348609D01*
X94161027Y-99348609D02*
X93827694Y-99348609D01*
X95256265Y-99872419D02*
X95256265Y-99348609D01*
X95256265Y-99348609D02*
X95208646Y-99253371D01*
X95208646Y-99253371D02*
X95113408Y-99205752D01*
X95113408Y-99205752D02*
X94922932Y-99205752D01*
X94922932Y-99205752D02*
X94827694Y-99253371D01*
X95256265Y-99824800D02*
X95161027Y-99872419D01*
X95161027Y-99872419D02*
X94922932Y-99872419D01*
X94922932Y-99872419D02*
X94827694Y-99824800D01*
X94827694Y-99824800D02*
X94780075Y-99729561D01*
X94780075Y-99729561D02*
X94780075Y-99634323D01*
X94780075Y-99634323D02*
X94827694Y-99539085D01*
X94827694Y-99539085D02*
X94922932Y-99491466D01*
X94922932Y-99491466D02*
X95161027Y-99491466D01*
X95161027Y-99491466D02*
X95256265Y-99443847D01*
X95732456Y-99872419D02*
X95732456Y-99205752D01*
X95732456Y-99396228D02*
X95780075Y-99300990D01*
X95780075Y-99300990D02*
X95827694Y-99253371D01*
X95827694Y-99253371D02*
X95922932Y-99205752D01*
X95922932Y-99205752D02*
X96018170Y-99205752D01*
X96780075Y-99872419D02*
X96780075Y-99348609D01*
X96780075Y-99348609D02*
X96732456Y-99253371D01*
X96732456Y-99253371D02*
X96637218Y-99205752D01*
X96637218Y-99205752D02*
X96446742Y-99205752D01*
X96446742Y-99205752D02*
X96351504Y-99253371D01*
X96780075Y-99824800D02*
X96684837Y-99872419D01*
X96684837Y-99872419D02*
X96446742Y-99872419D01*
X96446742Y-99872419D02*
X96351504Y-99824800D01*
X96351504Y-99824800D02*
X96303885Y-99729561D01*
X96303885Y-99729561D02*
X96303885Y-99634323D01*
X96303885Y-99634323D02*
X96351504Y-99539085D01*
X96351504Y-99539085D02*
X96446742Y-99491466D01*
X96446742Y-99491466D02*
X96684837Y-99491466D01*
X96684837Y-99491466D02*
X96780075Y-99443847D01*
X97161028Y-99205752D02*
X97684837Y-99205752D01*
X97684837Y-99205752D02*
X97161028Y-99872419D01*
X97161028Y-99872419D02*
X97684837Y-99872419D01*
X98494361Y-99872419D02*
X98494361Y-99348609D01*
X98494361Y-99348609D02*
X98446742Y-99253371D01*
X98446742Y-99253371D02*
X98351504Y-99205752D01*
X98351504Y-99205752D02*
X98161028Y-99205752D01*
X98161028Y-99205752D02*
X98065790Y-99253371D01*
X98494361Y-99824800D02*
X98399123Y-99872419D01*
X98399123Y-99872419D02*
X98161028Y-99872419D01*
X98161028Y-99872419D02*
X98065790Y-99824800D01*
X98065790Y-99824800D02*
X98018171Y-99729561D01*
X98018171Y-99729561D02*
X98018171Y-99634323D01*
X98018171Y-99634323D02*
X98065790Y-99539085D01*
X98065790Y-99539085D02*
X98161028Y-99491466D01*
X98161028Y-99491466D02*
X98399123Y-99491466D01*
X98399123Y-99491466D02*
X98494361Y-99443847D01*
X99922933Y-98872419D02*
X100113409Y-98872419D01*
X100113409Y-98872419D02*
X100208647Y-98920038D01*
X100208647Y-98920038D02*
X100303885Y-99015276D01*
X100303885Y-99015276D02*
X100351504Y-99205752D01*
X100351504Y-99205752D02*
X100351504Y-99539085D01*
X100351504Y-99539085D02*
X100303885Y-99729561D01*
X100303885Y-99729561D02*
X100208647Y-99824800D01*
X100208647Y-99824800D02*
X100113409Y-99872419D01*
X100113409Y-99872419D02*
X99922933Y-99872419D01*
X99922933Y-99872419D02*
X99827695Y-99824800D01*
X99827695Y-99824800D02*
X99732457Y-99729561D01*
X99732457Y-99729561D02*
X99684838Y-99539085D01*
X99684838Y-99539085D02*
X99684838Y-99205752D01*
X99684838Y-99205752D02*
X99732457Y-99015276D01*
X99732457Y-99015276D02*
X99827695Y-98920038D01*
X99827695Y-98920038D02*
X99922933Y-98872419D01*
X100637219Y-99205752D02*
X101018171Y-99205752D01*
X100780076Y-98872419D02*
X100780076Y-99729561D01*
X100780076Y-99729561D02*
X100827695Y-99824800D01*
X100827695Y-99824800D02*
X100922933Y-99872419D01*
X100922933Y-99872419D02*
X101018171Y-99872419D01*
X101351505Y-99872419D02*
X101351505Y-99205752D01*
X101351505Y-98872419D02*
X101303886Y-98920038D01*
X101303886Y-98920038D02*
X101351505Y-98967657D01*
X101351505Y-98967657D02*
X101399124Y-98920038D01*
X101399124Y-98920038D02*
X101351505Y-98872419D01*
X101351505Y-98872419D02*
X101351505Y-98967657D01*
X102208647Y-99824800D02*
X102113409Y-99872419D01*
X102113409Y-99872419D02*
X101922933Y-99872419D01*
X101922933Y-99872419D02*
X101827695Y-99824800D01*
X101827695Y-99824800D02*
X101780076Y-99729561D01*
X101780076Y-99729561D02*
X101780076Y-99348609D01*
X101780076Y-99348609D02*
X101827695Y-99253371D01*
X101827695Y-99253371D02*
X101922933Y-99205752D01*
X101922933Y-99205752D02*
X102113409Y-99205752D01*
X102113409Y-99205752D02*
X102208647Y-99253371D01*
X102208647Y-99253371D02*
X102256266Y-99348609D01*
X102256266Y-99348609D02*
X102256266Y-99443847D01*
X102256266Y-99443847D02*
X101780076Y-99539085D01*
X102684838Y-99205752D02*
X102684838Y-99872419D01*
X102684838Y-99300990D02*
X102732457Y-99253371D01*
X102732457Y-99253371D02*
X102827695Y-99205752D01*
X102827695Y-99205752D02*
X102970552Y-99205752D01*
X102970552Y-99205752D02*
X103065790Y-99253371D01*
X103065790Y-99253371D02*
X103113409Y-99348609D01*
X103113409Y-99348609D02*
X103113409Y-99872419D01*
X103732457Y-99872419D02*
X103637219Y-99824800D01*
X103637219Y-99824800D02*
X103589600Y-99777180D01*
X103589600Y-99777180D02*
X103541981Y-99681942D01*
X103541981Y-99681942D02*
X103541981Y-99396228D01*
X103541981Y-99396228D02*
X103589600Y-99300990D01*
X103589600Y-99300990D02*
X103637219Y-99253371D01*
X103637219Y-99253371D02*
X103732457Y-99205752D01*
X103732457Y-99205752D02*
X103875314Y-99205752D01*
X103875314Y-99205752D02*
X103970552Y-99253371D01*
X103970552Y-99253371D02*
X104018171Y-99300990D01*
X104018171Y-99300990D02*
X104065790Y-99396228D01*
X104065790Y-99396228D02*
X104065790Y-99681942D01*
X104065790Y-99681942D02*
X104018171Y-99777180D01*
X104018171Y-99777180D02*
X103970552Y-99824800D01*
X103970552Y-99824800D02*
X103875314Y-99872419D01*
X103875314Y-99872419D02*
X103732457Y-99872419D01*
X86803884Y-101848609D02*
X87137217Y-101848609D01*
X87280074Y-102372419D02*
X86803884Y-102372419D01*
X86803884Y-102372419D02*
X86803884Y-101372419D01*
X86803884Y-101372419D02*
X87280074Y-101372419D01*
X88280074Y-102277180D02*
X88232455Y-102324800D01*
X88232455Y-102324800D02*
X88089598Y-102372419D01*
X88089598Y-102372419D02*
X87994360Y-102372419D01*
X87994360Y-102372419D02*
X87851503Y-102324800D01*
X87851503Y-102324800D02*
X87756265Y-102229561D01*
X87756265Y-102229561D02*
X87708646Y-102134323D01*
X87708646Y-102134323D02*
X87661027Y-101943847D01*
X87661027Y-101943847D02*
X87661027Y-101800990D01*
X87661027Y-101800990D02*
X87708646Y-101610514D01*
X87708646Y-101610514D02*
X87756265Y-101515276D01*
X87756265Y-101515276D02*
X87851503Y-101420038D01*
X87851503Y-101420038D02*
X87994360Y-101372419D01*
X87994360Y-101372419D02*
X88089598Y-101372419D01*
X88089598Y-101372419D02*
X88232455Y-101420038D01*
X88232455Y-101420038D02*
X88280074Y-101467657D01*
X88708646Y-101848609D02*
X89041979Y-101848609D01*
X89184836Y-102372419D02*
X88708646Y-102372419D01*
X88708646Y-102372419D02*
X88708646Y-101372419D01*
X88708646Y-101372419D02*
X89184836Y-101372419D01*
X90280075Y-101372419D02*
X90899122Y-101372419D01*
X90899122Y-101372419D02*
X90565789Y-101753371D01*
X90565789Y-101753371D02*
X90708646Y-101753371D01*
X90708646Y-101753371D02*
X90803884Y-101800990D01*
X90803884Y-101800990D02*
X90851503Y-101848609D01*
X90851503Y-101848609D02*
X90899122Y-101943847D01*
X90899122Y-101943847D02*
X90899122Y-102181942D01*
X90899122Y-102181942D02*
X90851503Y-102277180D01*
X90851503Y-102277180D02*
X90803884Y-102324800D01*
X90803884Y-102324800D02*
X90708646Y-102372419D01*
X90708646Y-102372419D02*
X90422932Y-102372419D01*
X90422932Y-102372419D02*
X90327694Y-102324800D01*
X90327694Y-102324800D02*
X90280075Y-102277180D01*
X91280075Y-101467657D02*
X91327694Y-101420038D01*
X91327694Y-101420038D02*
X91422932Y-101372419D01*
X91422932Y-101372419D02*
X91661027Y-101372419D01*
X91661027Y-101372419D02*
X91756265Y-101420038D01*
X91756265Y-101420038D02*
X91803884Y-101467657D01*
X91803884Y-101467657D02*
X91851503Y-101562895D01*
X91851503Y-101562895D02*
X91851503Y-101658133D01*
X91851503Y-101658133D02*
X91803884Y-101800990D01*
X91803884Y-101800990D02*
X91232456Y-102372419D01*
X91232456Y-102372419D02*
X91851503Y-102372419D01*
X92184837Y-101372419D02*
X92803884Y-101372419D01*
X92803884Y-101372419D02*
X92470551Y-101753371D01*
X92470551Y-101753371D02*
X92613408Y-101753371D01*
X92613408Y-101753371D02*
X92708646Y-101800990D01*
X92708646Y-101800990D02*
X92756265Y-101848609D01*
X92756265Y-101848609D02*
X92803884Y-101943847D01*
X92803884Y-101943847D02*
X92803884Y-102181942D01*
X92803884Y-102181942D02*
X92756265Y-102277180D01*
X92756265Y-102277180D02*
X92708646Y-102324800D01*
X92708646Y-102324800D02*
X92613408Y-102372419D01*
X92613408Y-102372419D02*
X92327694Y-102372419D01*
X92327694Y-102372419D02*
X92232456Y-102324800D01*
X92232456Y-102324800D02*
X92184837Y-102277180D01*
X93946742Y-102324800D02*
X94089599Y-102372419D01*
X94089599Y-102372419D02*
X94327694Y-102372419D01*
X94327694Y-102372419D02*
X94422932Y-102324800D01*
X94422932Y-102324800D02*
X94470551Y-102277180D01*
X94470551Y-102277180D02*
X94518170Y-102181942D01*
X94518170Y-102181942D02*
X94518170Y-102086704D01*
X94518170Y-102086704D02*
X94470551Y-101991466D01*
X94470551Y-101991466D02*
X94422932Y-101943847D01*
X94422932Y-101943847D02*
X94327694Y-101896228D01*
X94327694Y-101896228D02*
X94137218Y-101848609D01*
X94137218Y-101848609D02*
X94041980Y-101800990D01*
X94041980Y-101800990D02*
X93994361Y-101753371D01*
X93994361Y-101753371D02*
X93946742Y-101658133D01*
X93946742Y-101658133D02*
X93946742Y-101562895D01*
X93946742Y-101562895D02*
X93994361Y-101467657D01*
X93994361Y-101467657D02*
X94041980Y-101420038D01*
X94041980Y-101420038D02*
X94137218Y-101372419D01*
X94137218Y-101372419D02*
X94375313Y-101372419D01*
X94375313Y-101372419D02*
X94518170Y-101420038D01*
X94946742Y-101705752D02*
X94946742Y-102705752D01*
X94946742Y-101753371D02*
X95041980Y-101705752D01*
X95041980Y-101705752D02*
X95232456Y-101705752D01*
X95232456Y-101705752D02*
X95327694Y-101753371D01*
X95327694Y-101753371D02*
X95375313Y-101800990D01*
X95375313Y-101800990D02*
X95422932Y-101896228D01*
X95422932Y-101896228D02*
X95422932Y-102181942D01*
X95422932Y-102181942D02*
X95375313Y-102277180D01*
X95375313Y-102277180D02*
X95327694Y-102324800D01*
X95327694Y-102324800D02*
X95232456Y-102372419D01*
X95232456Y-102372419D02*
X95041980Y-102372419D01*
X95041980Y-102372419D02*
X94946742Y-102324800D01*
X95851504Y-102372419D02*
X95851504Y-101705752D01*
X95851504Y-101896228D02*
X95899123Y-101800990D01*
X95899123Y-101800990D02*
X95946742Y-101753371D01*
X95946742Y-101753371D02*
X96041980Y-101705752D01*
X96041980Y-101705752D02*
X96137218Y-101705752D01*
X96470552Y-102372419D02*
X96470552Y-101705752D01*
X96470552Y-101372419D02*
X96422933Y-101420038D01*
X96422933Y-101420038D02*
X96470552Y-101467657D01*
X96470552Y-101467657D02*
X96518171Y-101420038D01*
X96518171Y-101420038D02*
X96470552Y-101372419D01*
X96470552Y-101372419D02*
X96470552Y-101467657D01*
X96946742Y-101705752D02*
X96946742Y-102372419D01*
X96946742Y-101800990D02*
X96994361Y-101753371D01*
X96994361Y-101753371D02*
X97089599Y-101705752D01*
X97089599Y-101705752D02*
X97232456Y-101705752D01*
X97232456Y-101705752D02*
X97327694Y-101753371D01*
X97327694Y-101753371D02*
X97375313Y-101848609D01*
X97375313Y-101848609D02*
X97375313Y-102372419D01*
X98280075Y-101705752D02*
X98280075Y-102515276D01*
X98280075Y-102515276D02*
X98232456Y-102610514D01*
X98232456Y-102610514D02*
X98184837Y-102658133D01*
X98184837Y-102658133D02*
X98089599Y-102705752D01*
X98089599Y-102705752D02*
X97946742Y-102705752D01*
X97946742Y-102705752D02*
X97851504Y-102658133D01*
X98280075Y-102324800D02*
X98184837Y-102372419D01*
X98184837Y-102372419D02*
X97994361Y-102372419D01*
X97994361Y-102372419D02*
X97899123Y-102324800D01*
X97899123Y-102324800D02*
X97851504Y-102277180D01*
X97851504Y-102277180D02*
X97803885Y-102181942D01*
X97803885Y-102181942D02*
X97803885Y-101896228D01*
X97803885Y-101896228D02*
X97851504Y-101800990D01*
X97851504Y-101800990D02*
X97899123Y-101753371D01*
X97899123Y-101753371D02*
X97994361Y-101705752D01*
X97994361Y-101705752D02*
X98184837Y-101705752D01*
X98184837Y-101705752D02*
X98280075Y-101753371D01*
X99470552Y-101467657D02*
X99518171Y-101420038D01*
X99518171Y-101420038D02*
X99613409Y-101372419D01*
X99613409Y-101372419D02*
X99851504Y-101372419D01*
X99851504Y-101372419D02*
X99946742Y-101420038D01*
X99946742Y-101420038D02*
X99994361Y-101467657D01*
X99994361Y-101467657D02*
X100041980Y-101562895D01*
X100041980Y-101562895D02*
X100041980Y-101658133D01*
X100041980Y-101658133D02*
X99994361Y-101800990D01*
X99994361Y-101800990D02*
X99422933Y-102372419D01*
X99422933Y-102372419D02*
X100041980Y-102372419D01*
X100661028Y-101372419D02*
X100756266Y-101372419D01*
X100756266Y-101372419D02*
X100851504Y-101420038D01*
X100851504Y-101420038D02*
X100899123Y-101467657D01*
X100899123Y-101467657D02*
X100946742Y-101562895D01*
X100946742Y-101562895D02*
X100994361Y-101753371D01*
X100994361Y-101753371D02*
X100994361Y-101991466D01*
X100994361Y-101991466D02*
X100946742Y-102181942D01*
X100946742Y-102181942D02*
X100899123Y-102277180D01*
X100899123Y-102277180D02*
X100851504Y-102324800D01*
X100851504Y-102324800D02*
X100756266Y-102372419D01*
X100756266Y-102372419D02*
X100661028Y-102372419D01*
X100661028Y-102372419D02*
X100565790Y-102324800D01*
X100565790Y-102324800D02*
X100518171Y-102277180D01*
X100518171Y-102277180D02*
X100470552Y-102181942D01*
X100470552Y-102181942D02*
X100422933Y-101991466D01*
X100422933Y-101991466D02*
X100422933Y-101753371D01*
X100422933Y-101753371D02*
X100470552Y-101562895D01*
X100470552Y-101562895D02*
X100518171Y-101467657D01*
X100518171Y-101467657D02*
X100565790Y-101420038D01*
X100565790Y-101420038D02*
X100661028Y-101372419D01*
X101375314Y-101467657D02*
X101422933Y-101420038D01*
X101422933Y-101420038D02*
X101518171Y-101372419D01*
X101518171Y-101372419D02*
X101756266Y-101372419D01*
X101756266Y-101372419D02*
X101851504Y-101420038D01*
X101851504Y-101420038D02*
X101899123Y-101467657D01*
X101899123Y-101467657D02*
X101946742Y-101562895D01*
X101946742Y-101562895D02*
X101946742Y-101658133D01*
X101946742Y-101658133D02*
X101899123Y-101800990D01*
X101899123Y-101800990D02*
X101327695Y-102372419D01*
X101327695Y-102372419D02*
X101946742Y-102372419D01*
X102851504Y-101372419D02*
X102375314Y-101372419D01*
X102375314Y-101372419D02*
X102327695Y-101848609D01*
X102327695Y-101848609D02*
X102375314Y-101800990D01*
X102375314Y-101800990D02*
X102470552Y-101753371D01*
X102470552Y-101753371D02*
X102708647Y-101753371D01*
X102708647Y-101753371D02*
X102803885Y-101800990D01*
X102803885Y-101800990D02*
X102851504Y-101848609D01*
X102851504Y-101848609D02*
X102899123Y-101943847D01*
X102899123Y-101943847D02*
X102899123Y-102181942D01*
X102899123Y-102181942D02*
X102851504Y-102277180D01*
X102851504Y-102277180D02*
X102803885Y-102324800D01*
X102803885Y-102324800D02*
X102708647Y-102372419D01*
X102708647Y-102372419D02*
X102470552Y-102372419D01*
X102470552Y-102372419D02*
X102375314Y-102324800D01*
X102375314Y-102324800D02*
X102327695Y-102277180D01*
X102000000Y-78500000D02*
X195500000Y-78500000D01*
X195500000Y-108000000D01*
X102000000Y-108000000D01*
X102000000Y-78500000D01*
X147500000Y-41000000D02*
X202500000Y-41000000D01*
X202500000Y-71500000D01*
X147500000Y-71500000D01*
X147500000Y-41000000D01*
X102000000Y-41000000D02*
X142500000Y-41000000D01*
X142500000Y-71500000D01*
X102000000Y-71500000D01*
X102000000Y-41000000D01*
D11*
X174114661Y-36606857D02*
X175114661Y-39606857D01*
X175114661Y-39606857D02*
X176114661Y-36606857D01*
X178828947Y-39321142D02*
X178686090Y-39464000D01*
X178686090Y-39464000D02*
X178257518Y-39606857D01*
X178257518Y-39606857D02*
X177971804Y-39606857D01*
X177971804Y-39606857D02*
X177543233Y-39464000D01*
X177543233Y-39464000D02*
X177257518Y-39178285D01*
X177257518Y-39178285D02*
X177114661Y-38892571D01*
X177114661Y-38892571D02*
X176971804Y-38321142D01*
X176971804Y-38321142D02*
X176971804Y-37892571D01*
X176971804Y-37892571D02*
X177114661Y-37321142D01*
X177114661Y-37321142D02*
X177257518Y-37035428D01*
X177257518Y-37035428D02*
X177543233Y-36749714D01*
X177543233Y-36749714D02*
X177971804Y-36606857D01*
X177971804Y-36606857D02*
X178257518Y-36606857D01*
X178257518Y-36606857D02*
X178686090Y-36749714D01*
X178686090Y-36749714D02*
X178828947Y-36892571D01*
X180686090Y-36606857D02*
X181257518Y-36606857D01*
X181257518Y-36606857D02*
X181543233Y-36749714D01*
X181543233Y-36749714D02*
X181828947Y-37035428D01*
X181828947Y-37035428D02*
X181971804Y-37606857D01*
X181971804Y-37606857D02*
X181971804Y-38606857D01*
X181971804Y-38606857D02*
X181828947Y-39178285D01*
X181828947Y-39178285D02*
X181543233Y-39464000D01*
X181543233Y-39464000D02*
X181257518Y-39606857D01*
X181257518Y-39606857D02*
X180686090Y-39606857D01*
X180686090Y-39606857D02*
X180400376Y-39464000D01*
X180400376Y-39464000D02*
X180114661Y-39178285D01*
X180114661Y-39178285D02*
X179971804Y-38606857D01*
X179971804Y-38606857D02*
X179971804Y-37606857D01*
X179971804Y-37606857D02*
X180114661Y-37035428D01*
X180114661Y-37035428D02*
X180400376Y-36749714D01*
X180400376Y-36749714D02*
X180686090Y-36606857D01*
X186543232Y-38035428D02*
X186971804Y-38178285D01*
X186971804Y-38178285D02*
X187114661Y-38321142D01*
X187114661Y-38321142D02*
X187257518Y-38606857D01*
X187257518Y-38606857D02*
X187257518Y-39035428D01*
X187257518Y-39035428D02*
X187114661Y-39321142D01*
X187114661Y-39321142D02*
X186971804Y-39464000D01*
X186971804Y-39464000D02*
X186686089Y-39606857D01*
X186686089Y-39606857D02*
X185543232Y-39606857D01*
X185543232Y-39606857D02*
X185543232Y-36606857D01*
X185543232Y-36606857D02*
X186543232Y-36606857D01*
X186543232Y-36606857D02*
X186828947Y-36749714D01*
X186828947Y-36749714D02*
X186971804Y-36892571D01*
X186971804Y-36892571D02*
X187114661Y-37178285D01*
X187114661Y-37178285D02*
X187114661Y-37464000D01*
X187114661Y-37464000D02*
X186971804Y-37749714D01*
X186971804Y-37749714D02*
X186828947Y-37892571D01*
X186828947Y-37892571D02*
X186543232Y-38035428D01*
X186543232Y-38035428D02*
X185543232Y-38035428D01*
X189114661Y-36606857D02*
X189686089Y-36606857D01*
X189686089Y-36606857D02*
X189971804Y-36749714D01*
X189971804Y-36749714D02*
X190257518Y-37035428D01*
X190257518Y-37035428D02*
X190400375Y-37606857D01*
X190400375Y-37606857D02*
X190400375Y-38606857D01*
X190400375Y-38606857D02*
X190257518Y-39178285D01*
X190257518Y-39178285D02*
X189971804Y-39464000D01*
X189971804Y-39464000D02*
X189686089Y-39606857D01*
X189686089Y-39606857D02*
X189114661Y-39606857D01*
X189114661Y-39606857D02*
X188828947Y-39464000D01*
X188828947Y-39464000D02*
X188543232Y-39178285D01*
X188543232Y-39178285D02*
X188400375Y-38606857D01*
X188400375Y-38606857D02*
X188400375Y-37606857D01*
X188400375Y-37606857D02*
X188543232Y-37035428D01*
X188543232Y-37035428D02*
X188828947Y-36749714D01*
X188828947Y-36749714D02*
X189114661Y-36606857D01*
X191543232Y-38749714D02*
X192971804Y-38749714D01*
X191257518Y-39606857D02*
X192257518Y-36606857D01*
X192257518Y-36606857D02*
X193257518Y-39606857D01*
X195971804Y-39606857D02*
X194971804Y-38178285D01*
X194257518Y-39606857D02*
X194257518Y-36606857D01*
X194257518Y-36606857D02*
X195400375Y-36606857D01*
X195400375Y-36606857D02*
X195686090Y-36749714D01*
X195686090Y-36749714D02*
X195828947Y-36892571D01*
X195828947Y-36892571D02*
X195971804Y-37178285D01*
X195971804Y-37178285D02*
X195971804Y-37606857D01*
X195971804Y-37606857D02*
X195828947Y-37892571D01*
X195828947Y-37892571D02*
X195686090Y-38035428D01*
X195686090Y-38035428D02*
X195400375Y-38178285D01*
X195400375Y-38178285D02*
X194257518Y-38178285D01*
X197257518Y-39606857D02*
X197257518Y-36606857D01*
X197257518Y-36606857D02*
X197971804Y-36606857D01*
X197971804Y-36606857D02*
X198400375Y-36749714D01*
X198400375Y-36749714D02*
X198686090Y-37035428D01*
X198686090Y-37035428D02*
X198828947Y-37321142D01*
X198828947Y-37321142D02*
X198971804Y-37892571D01*
X198971804Y-37892571D02*
X198971804Y-38321142D01*
X198971804Y-38321142D02*
X198828947Y-38892571D01*
X198828947Y-38892571D02*
X198686090Y-39178285D01*
X198686090Y-39178285D02*
X198400375Y-39464000D01*
X198400375Y-39464000D02*
X197971804Y-39606857D01*
X197971804Y-39606857D02*
X197257518Y-39606857D01*
D10*
X213875312Y-49372419D02*
X213541979Y-48896228D01*
X213303884Y-49372419D02*
X213303884Y-48372419D01*
X213303884Y-48372419D02*
X213684836Y-48372419D01*
X213684836Y-48372419D02*
X213780074Y-48420038D01*
X213780074Y-48420038D02*
X213827693Y-48467657D01*
X213827693Y-48467657D02*
X213875312Y-48562895D01*
X213875312Y-48562895D02*
X213875312Y-48705752D01*
X213875312Y-48705752D02*
X213827693Y-48800990D01*
X213827693Y-48800990D02*
X213780074Y-48848609D01*
X213780074Y-48848609D02*
X213684836Y-48896228D01*
X213684836Y-48896228D02*
X213303884Y-48896228D01*
X214161027Y-48372419D02*
X214732455Y-48372419D01*
X214446741Y-49372419D02*
X214446741Y-48372419D01*
X215065789Y-49372419D02*
X215065789Y-48372419D01*
X215065789Y-48372419D02*
X215637217Y-49372419D01*
X215637217Y-49372419D02*
X215637217Y-48372419D01*
X82661027Y-50872419D02*
X82994360Y-51872419D01*
X82994360Y-51872419D02*
X83327693Y-50872419D01*
X83661027Y-51872419D02*
X83661027Y-50872419D01*
X83661027Y-50872419D02*
X84041979Y-50872419D01*
X84041979Y-50872419D02*
X84137217Y-50920038D01*
X84137217Y-50920038D02*
X84184836Y-50967657D01*
X84184836Y-50967657D02*
X84232455Y-51062895D01*
X84232455Y-51062895D02*
X84232455Y-51205752D01*
X84232455Y-51205752D02*
X84184836Y-51300990D01*
X84184836Y-51300990D02*
X84137217Y-51348609D01*
X84137217Y-51348609D02*
X84041979Y-51396228D01*
X84041979Y-51396228D02*
X83661027Y-51396228D01*
X84851503Y-50872419D02*
X85041979Y-50872419D01*
X85041979Y-50872419D02*
X85137217Y-50920038D01*
X85137217Y-50920038D02*
X85232455Y-51015276D01*
X85232455Y-51015276D02*
X85280074Y-51205752D01*
X85280074Y-51205752D02*
X85280074Y-51539085D01*
X85280074Y-51539085D02*
X85232455Y-51729561D01*
X85232455Y-51729561D02*
X85137217Y-51824800D01*
X85137217Y-51824800D02*
X85041979Y-51872419D01*
X85041979Y-51872419D02*
X84851503Y-51872419D01*
X84851503Y-51872419D02*
X84756265Y-51824800D01*
X84756265Y-51824800D02*
X84661027Y-51729561D01*
X84661027Y-51729561D02*
X84613408Y-51539085D01*
X84613408Y-51539085D02*
X84613408Y-51205752D01*
X84613408Y-51205752D02*
X84661027Y-51015276D01*
X84661027Y-51015276D02*
X84756265Y-50920038D01*
X84756265Y-50920038D02*
X84851503Y-50872419D01*
X85613408Y-50872419D02*
X85851503Y-51872419D01*
X85851503Y-51872419D02*
X86041979Y-51158133D01*
X86041979Y-51158133D02*
X86232455Y-51872419D01*
X86232455Y-51872419D02*
X86470551Y-50872419D01*
X86851503Y-51348609D02*
X87184836Y-51348609D01*
X87327693Y-51872419D02*
X86851503Y-51872419D01*
X86851503Y-51872419D02*
X86851503Y-50872419D01*
X86851503Y-50872419D02*
X87327693Y-50872419D01*
X88327693Y-51872419D02*
X87994360Y-51396228D01*
X87756265Y-51872419D02*
X87756265Y-50872419D01*
X87756265Y-50872419D02*
X88137217Y-50872419D01*
X88137217Y-50872419D02*
X88232455Y-50920038D01*
X88232455Y-50920038D02*
X88280074Y-50967657D01*
X88280074Y-50967657D02*
X88327693Y-51062895D01*
X88327693Y-51062895D02*
X88327693Y-51205752D01*
X88327693Y-51205752D02*
X88280074Y-51300990D01*
X88280074Y-51300990D02*
X88232455Y-51348609D01*
X88232455Y-51348609D02*
X88137217Y-51396228D01*
X88137217Y-51396228D02*
X87756265Y-51396228D01*
X213161027Y-63872419D02*
X213494360Y-64872419D01*
X213494360Y-64872419D02*
X213827693Y-63872419D01*
X214637217Y-64872419D02*
X214161027Y-64872419D01*
X214161027Y-64872419D02*
X214161027Y-63872419D01*
X215161027Y-63872419D02*
X215351503Y-63872419D01*
X215351503Y-63872419D02*
X215446741Y-63920038D01*
X215446741Y-63920038D02*
X215541979Y-64015276D01*
X215541979Y-64015276D02*
X215589598Y-64205752D01*
X215589598Y-64205752D02*
X215589598Y-64539085D01*
X215589598Y-64539085D02*
X215541979Y-64729561D01*
X215541979Y-64729561D02*
X215446741Y-64824800D01*
X215446741Y-64824800D02*
X215351503Y-64872419D01*
X215351503Y-64872419D02*
X215161027Y-64872419D01*
X215161027Y-64872419D02*
X215065789Y-64824800D01*
X215065789Y-64824800D02*
X214970551Y-64729561D01*
X214970551Y-64729561D02*
X214922932Y-64539085D01*
X214922932Y-64539085D02*
X214922932Y-64205752D01*
X214922932Y-64205752D02*
X214970551Y-64015276D01*
X214970551Y-64015276D02*
X215065789Y-63920038D01*
X215065789Y-63920038D02*
X215161027Y-63872419D01*
X86375312Y-56872419D02*
X86041979Y-56396228D01*
X85803884Y-56872419D02*
X85803884Y-55872419D01*
X85803884Y-55872419D02*
X86184836Y-55872419D01*
X86184836Y-55872419D02*
X86280074Y-55920038D01*
X86280074Y-55920038D02*
X86327693Y-55967657D01*
X86327693Y-55967657D02*
X86375312Y-56062895D01*
X86375312Y-56062895D02*
X86375312Y-56205752D01*
X86375312Y-56205752D02*
X86327693Y-56300990D01*
X86327693Y-56300990D02*
X86280074Y-56348609D01*
X86280074Y-56348609D02*
X86184836Y-56396228D01*
X86184836Y-56396228D02*
X85803884Y-56396228D01*
X86661027Y-55872419D02*
X87232455Y-55872419D01*
X86946741Y-56872419D02*
X86946741Y-55872419D01*
X87565789Y-56872419D02*
X87565789Y-55872419D01*
X87565789Y-55872419D02*
X88137217Y-56872419D01*
X88137217Y-56872419D02*
X88137217Y-55872419D01*
X85661027Y-48372419D02*
X85994360Y-49372419D01*
X85994360Y-49372419D02*
X86327693Y-48372419D01*
X87232455Y-49277180D02*
X87184836Y-49324800D01*
X87184836Y-49324800D02*
X87041979Y-49372419D01*
X87041979Y-49372419D02*
X86946741Y-49372419D01*
X86946741Y-49372419D02*
X86803884Y-49324800D01*
X86803884Y-49324800D02*
X86708646Y-49229561D01*
X86708646Y-49229561D02*
X86661027Y-49134323D01*
X86661027Y-49134323D02*
X86613408Y-48943847D01*
X86613408Y-48943847D02*
X86613408Y-48800990D01*
X86613408Y-48800990D02*
X86661027Y-48610514D01*
X86661027Y-48610514D02*
X86708646Y-48515276D01*
X86708646Y-48515276D02*
X86803884Y-48420038D01*
X86803884Y-48420038D02*
X86946741Y-48372419D01*
X86946741Y-48372419D02*
X87041979Y-48372419D01*
X87041979Y-48372419D02*
X87184836Y-48420038D01*
X87184836Y-48420038D02*
X87232455Y-48467657D01*
X88232455Y-49277180D02*
X88184836Y-49324800D01*
X88184836Y-49324800D02*
X88041979Y-49372419D01*
X88041979Y-49372419D02*
X87946741Y-49372419D01*
X87946741Y-49372419D02*
X87803884Y-49324800D01*
X87803884Y-49324800D02*
X87708646Y-49229561D01*
X87708646Y-49229561D02*
X87661027Y-49134323D01*
X87661027Y-49134323D02*
X87613408Y-48943847D01*
X87613408Y-48943847D02*
X87613408Y-48800990D01*
X87613408Y-48800990D02*
X87661027Y-48610514D01*
X87661027Y-48610514D02*
X87708646Y-48515276D01*
X87708646Y-48515276D02*
X87803884Y-48420038D01*
X87803884Y-48420038D02*
X87946741Y-48372419D01*
X87946741Y-48372419D02*
X88041979Y-48372419D01*
X88041979Y-48372419D02*
X88184836Y-48420038D01*
X88184836Y-48420038D02*
X88232455Y-48467657D01*
X213161027Y-53872419D02*
X213494360Y-54872419D01*
X213494360Y-54872419D02*
X213827693Y-53872419D01*
X214732455Y-54777180D02*
X214684836Y-54824800D01*
X214684836Y-54824800D02*
X214541979Y-54872419D01*
X214541979Y-54872419D02*
X214446741Y-54872419D01*
X214446741Y-54872419D02*
X214303884Y-54824800D01*
X214303884Y-54824800D02*
X214208646Y-54729561D01*
X214208646Y-54729561D02*
X214161027Y-54634323D01*
X214161027Y-54634323D02*
X214113408Y-54443847D01*
X214113408Y-54443847D02*
X214113408Y-54300990D01*
X214113408Y-54300990D02*
X214161027Y-54110514D01*
X214161027Y-54110514D02*
X214208646Y-54015276D01*
X214208646Y-54015276D02*
X214303884Y-53920038D01*
X214303884Y-53920038D02*
X214446741Y-53872419D01*
X214446741Y-53872419D02*
X214541979Y-53872419D01*
X214541979Y-53872419D02*
X214684836Y-53920038D01*
X214684836Y-53920038D02*
X214732455Y-53967657D01*
X215113408Y-54586704D02*
X215589598Y-54586704D01*
X215018170Y-54872419D02*
X215351503Y-53872419D01*
X215351503Y-53872419D02*
X215684836Y-54872419D01*
X216018170Y-54872419D02*
X216018170Y-53872419D01*
X216018170Y-53872419D02*
X216399122Y-53872419D01*
X216399122Y-53872419D02*
X216494360Y-53920038D01*
X216494360Y-53920038D02*
X216541979Y-53967657D01*
X216541979Y-53967657D02*
X216589598Y-54062895D01*
X216589598Y-54062895D02*
X216589598Y-54205752D01*
X216589598Y-54205752D02*
X216541979Y-54300990D01*
X216541979Y-54300990D02*
X216494360Y-54348609D01*
X216494360Y-54348609D02*
X216399122Y-54396228D01*
X216399122Y-54396228D02*
X216018170Y-54396228D01*
X213161027Y-61372419D02*
X213494360Y-62372419D01*
X213494360Y-62372419D02*
X213827693Y-61372419D01*
X214161027Y-62372419D02*
X214161027Y-61372419D01*
X214161027Y-61848609D02*
X214732455Y-61848609D01*
X214732455Y-62372419D02*
X214732455Y-61372419D01*
X215208646Y-62372419D02*
X215208646Y-61372419D01*
X213161027Y-45872419D02*
X213494360Y-46872419D01*
X213494360Y-46872419D02*
X213827693Y-45872419D01*
X214494360Y-46348609D02*
X214161027Y-46348609D01*
X214161027Y-46872419D02*
X214161027Y-45872419D01*
X214161027Y-45872419D02*
X214637217Y-45872419D01*
X215351503Y-46348609D02*
X215494360Y-46396228D01*
X215494360Y-46396228D02*
X215541979Y-46443847D01*
X215541979Y-46443847D02*
X215589598Y-46539085D01*
X215589598Y-46539085D02*
X215589598Y-46681942D01*
X215589598Y-46681942D02*
X215541979Y-46777180D01*
X215541979Y-46777180D02*
X215494360Y-46824800D01*
X215494360Y-46824800D02*
X215399122Y-46872419D01*
X215399122Y-46872419D02*
X215018170Y-46872419D01*
X215018170Y-46872419D02*
X215018170Y-45872419D01*
X215018170Y-45872419D02*
X215351503Y-45872419D01*
X215351503Y-45872419D02*
X215446741Y-45920038D01*
X215446741Y-45920038D02*
X215494360Y-45967657D01*
X215494360Y-45967657D02*
X215541979Y-46062895D01*
X215541979Y-46062895D02*
X215541979Y-46158133D01*
X215541979Y-46158133D02*
X215494360Y-46253371D01*
X215494360Y-46253371D02*
X215446741Y-46300990D01*
X215446741Y-46300990D02*
X215351503Y-46348609D01*
X215351503Y-46348609D02*
X215018170Y-46348609D01*
X84161027Y-45872419D02*
X84494360Y-46872419D01*
X84494360Y-46872419D02*
X84827693Y-45872419D01*
X85732455Y-46777180D02*
X85684836Y-46824800D01*
X85684836Y-46824800D02*
X85541979Y-46872419D01*
X85541979Y-46872419D02*
X85446741Y-46872419D01*
X85446741Y-46872419D02*
X85303884Y-46824800D01*
X85303884Y-46824800D02*
X85208646Y-46729561D01*
X85208646Y-46729561D02*
X85161027Y-46634323D01*
X85161027Y-46634323D02*
X85113408Y-46443847D01*
X85113408Y-46443847D02*
X85113408Y-46300990D01*
X85113408Y-46300990D02*
X85161027Y-46110514D01*
X85161027Y-46110514D02*
X85208646Y-46015276D01*
X85208646Y-46015276D02*
X85303884Y-45920038D01*
X85303884Y-45920038D02*
X85446741Y-45872419D01*
X85446741Y-45872419D02*
X85541979Y-45872419D01*
X85541979Y-45872419D02*
X85684836Y-45920038D01*
X85684836Y-45920038D02*
X85732455Y-45967657D01*
X86018170Y-45872419D02*
X86589598Y-45872419D01*
X86303884Y-46872419D02*
X86303884Y-45872419D01*
X87494360Y-46872419D02*
X87161027Y-46396228D01*
X86922932Y-46872419D02*
X86922932Y-45872419D01*
X86922932Y-45872419D02*
X87303884Y-45872419D01*
X87303884Y-45872419D02*
X87399122Y-45920038D01*
X87399122Y-45920038D02*
X87446741Y-45967657D01*
X87446741Y-45967657D02*
X87494360Y-46062895D01*
X87494360Y-46062895D02*
X87494360Y-46205752D01*
X87494360Y-46205752D02*
X87446741Y-46300990D01*
X87446741Y-46300990D02*
X87399122Y-46348609D01*
X87399122Y-46348609D02*
X87303884Y-46396228D01*
X87303884Y-46396228D02*
X86922932Y-46396228D01*
X88399122Y-46872419D02*
X87922932Y-46872419D01*
X87922932Y-46872419D02*
X87922932Y-45872419D01*
X117161027Y-38372419D02*
X117494360Y-39372419D01*
X117494360Y-39372419D02*
X117827693Y-38372419D01*
X118303884Y-39372419D02*
X118208646Y-39324800D01*
X118208646Y-39324800D02*
X118161027Y-39277180D01*
X118161027Y-39277180D02*
X118113408Y-39181942D01*
X118113408Y-39181942D02*
X118113408Y-38896228D01*
X118113408Y-38896228D02*
X118161027Y-38800990D01*
X118161027Y-38800990D02*
X118208646Y-38753371D01*
X118208646Y-38753371D02*
X118303884Y-38705752D01*
X118303884Y-38705752D02*
X118446741Y-38705752D01*
X118446741Y-38705752D02*
X118541979Y-38753371D01*
X118541979Y-38753371D02*
X118589598Y-38800990D01*
X118589598Y-38800990D02*
X118637217Y-38896228D01*
X118637217Y-38896228D02*
X118637217Y-39181942D01*
X118637217Y-39181942D02*
X118589598Y-39277180D01*
X118589598Y-39277180D02*
X118541979Y-39324800D01*
X118541979Y-39324800D02*
X118446741Y-39372419D01*
X118446741Y-39372419D02*
X118303884Y-39372419D01*
X119208646Y-39372419D02*
X119113408Y-39324800D01*
X119113408Y-39324800D02*
X119065789Y-39229561D01*
X119065789Y-39229561D02*
X119065789Y-38372419D01*
X119446742Y-38705752D02*
X119827694Y-38705752D01*
X119589599Y-38372419D02*
X119589599Y-39229561D01*
X119589599Y-39229561D02*
X119637218Y-39324800D01*
X119637218Y-39324800D02*
X119732456Y-39372419D01*
X119732456Y-39372419D02*
X119827694Y-39372419D01*
X120589599Y-39372419D02*
X120589599Y-38848609D01*
X120589599Y-38848609D02*
X120541980Y-38753371D01*
X120541980Y-38753371D02*
X120446742Y-38705752D01*
X120446742Y-38705752D02*
X120256266Y-38705752D01*
X120256266Y-38705752D02*
X120161028Y-38753371D01*
X120589599Y-39324800D02*
X120494361Y-39372419D01*
X120494361Y-39372419D02*
X120256266Y-39372419D01*
X120256266Y-39372419D02*
X120161028Y-39324800D01*
X120161028Y-39324800D02*
X120113409Y-39229561D01*
X120113409Y-39229561D02*
X120113409Y-39134323D01*
X120113409Y-39134323D02*
X120161028Y-39039085D01*
X120161028Y-39039085D02*
X120256266Y-38991466D01*
X120256266Y-38991466D02*
X120494361Y-38991466D01*
X120494361Y-38991466D02*
X120589599Y-38943847D01*
X121494361Y-38705752D02*
X121494361Y-39515276D01*
X121494361Y-39515276D02*
X121446742Y-39610514D01*
X121446742Y-39610514D02*
X121399123Y-39658133D01*
X121399123Y-39658133D02*
X121303885Y-39705752D01*
X121303885Y-39705752D02*
X121161028Y-39705752D01*
X121161028Y-39705752D02*
X121065790Y-39658133D01*
X121494361Y-39324800D02*
X121399123Y-39372419D01*
X121399123Y-39372419D02*
X121208647Y-39372419D01*
X121208647Y-39372419D02*
X121113409Y-39324800D01*
X121113409Y-39324800D02*
X121065790Y-39277180D01*
X121065790Y-39277180D02*
X121018171Y-39181942D01*
X121018171Y-39181942D02*
X121018171Y-38896228D01*
X121018171Y-38896228D02*
X121065790Y-38800990D01*
X121065790Y-38800990D02*
X121113409Y-38753371D01*
X121113409Y-38753371D02*
X121208647Y-38705752D01*
X121208647Y-38705752D02*
X121399123Y-38705752D01*
X121399123Y-38705752D02*
X121494361Y-38753371D01*
X122351504Y-39324800D02*
X122256266Y-39372419D01*
X122256266Y-39372419D02*
X122065790Y-39372419D01*
X122065790Y-39372419D02*
X121970552Y-39324800D01*
X121970552Y-39324800D02*
X121922933Y-39229561D01*
X121922933Y-39229561D02*
X121922933Y-38848609D01*
X121922933Y-38848609D02*
X121970552Y-38753371D01*
X121970552Y-38753371D02*
X122065790Y-38705752D01*
X122065790Y-38705752D02*
X122256266Y-38705752D01*
X122256266Y-38705752D02*
X122351504Y-38753371D01*
X122351504Y-38753371D02*
X122399123Y-38848609D01*
X122399123Y-38848609D02*
X122399123Y-38943847D01*
X122399123Y-38943847D02*
X121922933Y-39039085D01*
X124161028Y-39372419D02*
X123827695Y-38896228D01*
X123589600Y-39372419D02*
X123589600Y-38372419D01*
X123589600Y-38372419D02*
X123970552Y-38372419D01*
X123970552Y-38372419D02*
X124065790Y-38420038D01*
X124065790Y-38420038D02*
X124113409Y-38467657D01*
X124113409Y-38467657D02*
X124161028Y-38562895D01*
X124161028Y-38562895D02*
X124161028Y-38705752D01*
X124161028Y-38705752D02*
X124113409Y-38800990D01*
X124113409Y-38800990D02*
X124065790Y-38848609D01*
X124065790Y-38848609D02*
X123970552Y-38896228D01*
X123970552Y-38896228D02*
X123589600Y-38896228D01*
X124970552Y-39324800D02*
X124875314Y-39372419D01*
X124875314Y-39372419D02*
X124684838Y-39372419D01*
X124684838Y-39372419D02*
X124589600Y-39324800D01*
X124589600Y-39324800D02*
X124541981Y-39229561D01*
X124541981Y-39229561D02*
X124541981Y-38848609D01*
X124541981Y-38848609D02*
X124589600Y-38753371D01*
X124589600Y-38753371D02*
X124684838Y-38705752D01*
X124684838Y-38705752D02*
X124875314Y-38705752D01*
X124875314Y-38705752D02*
X124970552Y-38753371D01*
X124970552Y-38753371D02*
X125018171Y-38848609D01*
X125018171Y-38848609D02*
X125018171Y-38943847D01*
X125018171Y-38943847D02*
X124541981Y-39039085D01*
X125875314Y-38705752D02*
X125875314Y-39515276D01*
X125875314Y-39515276D02*
X125827695Y-39610514D01*
X125827695Y-39610514D02*
X125780076Y-39658133D01*
X125780076Y-39658133D02*
X125684838Y-39705752D01*
X125684838Y-39705752D02*
X125541981Y-39705752D01*
X125541981Y-39705752D02*
X125446743Y-39658133D01*
X125875314Y-39324800D02*
X125780076Y-39372419D01*
X125780076Y-39372419D02*
X125589600Y-39372419D01*
X125589600Y-39372419D02*
X125494362Y-39324800D01*
X125494362Y-39324800D02*
X125446743Y-39277180D01*
X125446743Y-39277180D02*
X125399124Y-39181942D01*
X125399124Y-39181942D02*
X125399124Y-38896228D01*
X125399124Y-38896228D02*
X125446743Y-38800990D01*
X125446743Y-38800990D02*
X125494362Y-38753371D01*
X125494362Y-38753371D02*
X125589600Y-38705752D01*
X125589600Y-38705752D02*
X125780076Y-38705752D01*
X125780076Y-38705752D02*
X125875314Y-38753371D01*
X126780076Y-38705752D02*
X126780076Y-39372419D01*
X126351505Y-38705752D02*
X126351505Y-39229561D01*
X126351505Y-39229561D02*
X126399124Y-39324800D01*
X126399124Y-39324800D02*
X126494362Y-39372419D01*
X126494362Y-39372419D02*
X126637219Y-39372419D01*
X126637219Y-39372419D02*
X126732457Y-39324800D01*
X126732457Y-39324800D02*
X126780076Y-39277180D01*
X127399124Y-39372419D02*
X127303886Y-39324800D01*
X127303886Y-39324800D02*
X127256267Y-39229561D01*
X127256267Y-39229561D02*
X127256267Y-38372419D01*
X128208648Y-39372419D02*
X128208648Y-38848609D01*
X128208648Y-38848609D02*
X128161029Y-38753371D01*
X128161029Y-38753371D02*
X128065791Y-38705752D01*
X128065791Y-38705752D02*
X127875315Y-38705752D01*
X127875315Y-38705752D02*
X127780077Y-38753371D01*
X128208648Y-39324800D02*
X128113410Y-39372419D01*
X128113410Y-39372419D02*
X127875315Y-39372419D01*
X127875315Y-39372419D02*
X127780077Y-39324800D01*
X127780077Y-39324800D02*
X127732458Y-39229561D01*
X127732458Y-39229561D02*
X127732458Y-39134323D01*
X127732458Y-39134323D02*
X127780077Y-39039085D01*
X127780077Y-39039085D02*
X127875315Y-38991466D01*
X127875315Y-38991466D02*
X128113410Y-38991466D01*
X128113410Y-38991466D02*
X128208648Y-38943847D01*
X128541982Y-38705752D02*
X128922934Y-38705752D01*
X128684839Y-38372419D02*
X128684839Y-39229561D01*
X128684839Y-39229561D02*
X128732458Y-39324800D01*
X128732458Y-39324800D02*
X128827696Y-39372419D01*
X128827696Y-39372419D02*
X128922934Y-39372419D01*
X129399125Y-39372419D02*
X129303887Y-39324800D01*
X129303887Y-39324800D02*
X129256268Y-39277180D01*
X129256268Y-39277180D02*
X129208649Y-39181942D01*
X129208649Y-39181942D02*
X129208649Y-38896228D01*
X129208649Y-38896228D02*
X129256268Y-38800990D01*
X129256268Y-38800990D02*
X129303887Y-38753371D01*
X129303887Y-38753371D02*
X129399125Y-38705752D01*
X129399125Y-38705752D02*
X129541982Y-38705752D01*
X129541982Y-38705752D02*
X129637220Y-38753371D01*
X129637220Y-38753371D02*
X129684839Y-38800990D01*
X129684839Y-38800990D02*
X129732458Y-38896228D01*
X129732458Y-38896228D02*
X129732458Y-39181942D01*
X129732458Y-39181942D02*
X129684839Y-39277180D01*
X129684839Y-39277180D02*
X129637220Y-39324800D01*
X129637220Y-39324800D02*
X129541982Y-39372419D01*
X129541982Y-39372419D02*
X129399125Y-39372419D01*
X130161030Y-39372419D02*
X130161030Y-38705752D01*
X130161030Y-38896228D02*
X130208649Y-38800990D01*
X130208649Y-38800990D02*
X130256268Y-38753371D01*
X130256268Y-38753371D02*
X130351506Y-38705752D01*
X130351506Y-38705752D02*
X130446744Y-38705752D01*
X213875312Y-56872419D02*
X213541979Y-56396228D01*
X213303884Y-56872419D02*
X213303884Y-55872419D01*
X213303884Y-55872419D02*
X213684836Y-55872419D01*
X213684836Y-55872419D02*
X213780074Y-55920038D01*
X213780074Y-55920038D02*
X213827693Y-55967657D01*
X213827693Y-55967657D02*
X213875312Y-56062895D01*
X213875312Y-56062895D02*
X213875312Y-56205752D01*
X213875312Y-56205752D02*
X213827693Y-56300990D01*
X213827693Y-56300990D02*
X213780074Y-56348609D01*
X213780074Y-56348609D02*
X213684836Y-56396228D01*
X213684836Y-56396228D02*
X213303884Y-56396228D01*
X214161027Y-55872419D02*
X214732455Y-55872419D01*
X214446741Y-56872419D02*
X214446741Y-55872419D01*
X215065789Y-56872419D02*
X215065789Y-55872419D01*
X215065789Y-55872419D02*
X215637217Y-56872419D01*
X215637217Y-56872419D02*
X215637217Y-55872419D01*
D12*
X207954819Y-107309523D02*
X207478628Y-107642856D01*
X207954819Y-107880951D02*
X206954819Y-107880951D01*
X206954819Y-107880951D02*
X206954819Y-107499999D01*
X206954819Y-107499999D02*
X207002438Y-107404761D01*
X207002438Y-107404761D02*
X207050057Y-107357142D01*
X207050057Y-107357142D02*
X207145295Y-107309523D01*
X207145295Y-107309523D02*
X207288152Y-107309523D01*
X207288152Y-107309523D02*
X207383390Y-107357142D01*
X207383390Y-107357142D02*
X207431009Y-107404761D01*
X207431009Y-107404761D02*
X207478628Y-107499999D01*
X207478628Y-107499999D02*
X207478628Y-107880951D01*
X206954819Y-107023808D02*
X207954819Y-106690475D01*
X207954819Y-106690475D02*
X206954819Y-106357142D01*
X207954819Y-105499999D02*
X207954819Y-106071427D01*
X207954819Y-105785713D02*
X206954819Y-105785713D01*
X206954819Y-105785713D02*
X207097676Y-105880951D01*
X207097676Y-105880951D02*
X207192914Y-105976189D01*
X207192914Y-105976189D02*
X207240533Y-106071427D01*
X207859580Y-105071427D02*
X207907200Y-105023808D01*
X207907200Y-105023808D02*
X207954819Y-105071427D01*
X207954819Y-105071427D02*
X207907200Y-105119046D01*
X207907200Y-105119046D02*
X207859580Y-105071427D01*
X207859580Y-105071427D02*
X207954819Y-105071427D01*
X206954819Y-104119047D02*
X206954819Y-104595237D01*
X206954819Y-104595237D02*
X207431009Y-104642856D01*
X207431009Y-104642856D02*
X207383390Y-104595237D01*
X207383390Y-104595237D02*
X207335771Y-104499999D01*
X207335771Y-104499999D02*
X207335771Y-104261904D01*
X207335771Y-104261904D02*
X207383390Y-104166666D01*
X207383390Y-104166666D02*
X207431009Y-104119047D01*
X207431009Y-104119047D02*
X207526247Y-104071428D01*
X207526247Y-104071428D02*
X207764342Y-104071428D01*
X207764342Y-104071428D02*
X207859580Y-104119047D01*
X207859580Y-104119047D02*
X207907200Y-104166666D01*
X207907200Y-104166666D02*
X207954819Y-104261904D01*
X207954819Y-104261904D02*
X207954819Y-104499999D01*
X207954819Y-104499999D02*
X207907200Y-104595237D01*
X207907200Y-104595237D02*
X207859580Y-104642856D01*
X204857142Y-95084819D02*
X204523809Y-94608628D01*
X204285714Y-95084819D02*
X204285714Y-94084819D01*
X204285714Y-94084819D02*
X204666666Y-94084819D01*
X204666666Y-94084819D02*
X204761904Y-94132438D01*
X204761904Y-94132438D02*
X204809523Y-94180057D01*
X204809523Y-94180057D02*
X204857142Y-94275295D01*
X204857142Y-94275295D02*
X204857142Y-94418152D01*
X204857142Y-94418152D02*
X204809523Y-94513390D01*
X204809523Y-94513390D02*
X204761904Y-94561009D01*
X204761904Y-94561009D02*
X204666666Y-94608628D01*
X204666666Y-94608628D02*
X204285714Y-94608628D01*
X205809523Y-95084819D02*
X205238095Y-95084819D01*
X205523809Y-95084819D02*
X205523809Y-94084819D01*
X205523809Y-94084819D02*
X205428571Y-94227676D01*
X205428571Y-94227676D02*
X205333333Y-94322914D01*
X205333333Y-94322914D02*
X205238095Y-94370533D01*
X206190476Y-94180057D02*
X206238095Y-94132438D01*
X206238095Y-94132438D02*
X206333333Y-94084819D01*
X206333333Y-94084819D02*
X206571428Y-94084819D01*
X206571428Y-94084819D02*
X206666666Y-94132438D01*
X206666666Y-94132438D02*
X206714285Y-94180057D01*
X206714285Y-94180057D02*
X206761904Y-94275295D01*
X206761904Y-94275295D02*
X206761904Y-94370533D01*
X206761904Y-94370533D02*
X206714285Y-94513390D01*
X206714285Y-94513390D02*
X206142857Y-95084819D01*
X206142857Y-95084819D02*
X206761904Y-95084819D01*
X203357142Y-88084819D02*
X203023809Y-87608628D01*
X202785714Y-88084819D02*
X202785714Y-87084819D01*
X202785714Y-87084819D02*
X203166666Y-87084819D01*
X203166666Y-87084819D02*
X203261904Y-87132438D01*
X203261904Y-87132438D02*
X203309523Y-87180057D01*
X203309523Y-87180057D02*
X203357142Y-87275295D01*
X203357142Y-87275295D02*
X203357142Y-87418152D01*
X203357142Y-87418152D02*
X203309523Y-87513390D01*
X203309523Y-87513390D02*
X203261904Y-87561009D01*
X203261904Y-87561009D02*
X203166666Y-87608628D01*
X203166666Y-87608628D02*
X202785714Y-87608628D01*
X204309523Y-88084819D02*
X203738095Y-88084819D01*
X204023809Y-88084819D02*
X204023809Y-87084819D01*
X204023809Y-87084819D02*
X203928571Y-87227676D01*
X203928571Y-87227676D02*
X203833333Y-87322914D01*
X203833333Y-87322914D02*
X203738095Y-87370533D01*
X205261904Y-88084819D02*
X204690476Y-88084819D01*
X204976190Y-88084819D02*
X204976190Y-87084819D01*
X204976190Y-87084819D02*
X204880952Y-87227676D01*
X204880952Y-87227676D02*
X204785714Y-87322914D01*
X204785714Y-87322914D02*
X204690476Y-87370533D01*
X210256905Y-79994819D02*
X210256905Y-78994819D01*
X210256905Y-78994819D02*
X210495000Y-78994819D01*
X210495000Y-78994819D02*
X210637857Y-79042438D01*
X210637857Y-79042438D02*
X210733095Y-79137676D01*
X210733095Y-79137676D02*
X210780714Y-79232914D01*
X210780714Y-79232914D02*
X210828333Y-79423390D01*
X210828333Y-79423390D02*
X210828333Y-79566247D01*
X210828333Y-79566247D02*
X210780714Y-79756723D01*
X210780714Y-79756723D02*
X210733095Y-79851961D01*
X210733095Y-79851961D02*
X210637857Y-79947200D01*
X210637857Y-79947200D02*
X210495000Y-79994819D01*
X210495000Y-79994819D02*
X210256905Y-79994819D01*
X211161667Y-78994819D02*
X211780714Y-78994819D01*
X211780714Y-78994819D02*
X211447381Y-79375771D01*
X211447381Y-79375771D02*
X211590238Y-79375771D01*
X211590238Y-79375771D02*
X211685476Y-79423390D01*
X211685476Y-79423390D02*
X211733095Y-79471009D01*
X211733095Y-79471009D02*
X211780714Y-79566247D01*
X211780714Y-79566247D02*
X211780714Y-79804342D01*
X211780714Y-79804342D02*
X211733095Y-79899580D01*
X211733095Y-79899580D02*
X211685476Y-79947200D01*
X211685476Y-79947200D02*
X211590238Y-79994819D01*
X211590238Y-79994819D02*
X211304524Y-79994819D01*
X211304524Y-79994819D02*
X211209286Y-79947200D01*
X211209286Y-79947200D02*
X211161667Y-79899580D01*
X195333333Y-75359580D02*
X195285714Y-75407200D01*
X195285714Y-75407200D02*
X195142857Y-75454819D01*
X195142857Y-75454819D02*
X195047619Y-75454819D01*
X195047619Y-75454819D02*
X194904762Y-75407200D01*
X194904762Y-75407200D02*
X194809524Y-75311961D01*
X194809524Y-75311961D02*
X194761905Y-75216723D01*
X194761905Y-75216723D02*
X194714286Y-75026247D01*
X194714286Y-75026247D02*
X194714286Y-74883390D01*
X194714286Y-74883390D02*
X194761905Y-74692914D01*
X194761905Y-74692914D02*
X194809524Y-74597676D01*
X194809524Y-74597676D02*
X194904762Y-74502438D01*
X194904762Y-74502438D02*
X195047619Y-74454819D01*
X195047619Y-74454819D02*
X195142857Y-74454819D01*
X195142857Y-74454819D02*
X195285714Y-74502438D01*
X195285714Y-74502438D02*
X195333333Y-74550057D01*
X196238095Y-74454819D02*
X195761905Y-74454819D01*
X195761905Y-74454819D02*
X195714286Y-74931009D01*
X195714286Y-74931009D02*
X195761905Y-74883390D01*
X195761905Y-74883390D02*
X195857143Y-74835771D01*
X195857143Y-74835771D02*
X196095238Y-74835771D01*
X196095238Y-74835771D02*
X196190476Y-74883390D01*
X196190476Y-74883390D02*
X196238095Y-74931009D01*
X196238095Y-74931009D02*
X196285714Y-75026247D01*
X196285714Y-75026247D02*
X196285714Y-75264342D01*
X196285714Y-75264342D02*
X196238095Y-75359580D01*
X196238095Y-75359580D02*
X196190476Y-75407200D01*
X196190476Y-75407200D02*
X196095238Y-75454819D01*
X196095238Y-75454819D02*
X195857143Y-75454819D01*
X195857143Y-75454819D02*
X195761905Y-75407200D01*
X195761905Y-75407200D02*
X195714286Y-75359580D01*
X118198095Y-63184819D02*
X118198095Y-63994342D01*
X118198095Y-63994342D02*
X118245714Y-64089580D01*
X118245714Y-64089580D02*
X118293333Y-64137200D01*
X118293333Y-64137200D02*
X118388571Y-64184819D01*
X118388571Y-64184819D02*
X118579047Y-64184819D01*
X118579047Y-64184819D02*
X118674285Y-64137200D01*
X118674285Y-64137200D02*
X118721904Y-64089580D01*
X118721904Y-64089580D02*
X118769523Y-63994342D01*
X118769523Y-63994342D02*
X118769523Y-63184819D01*
X119769523Y-64184819D02*
X119198095Y-64184819D01*
X119483809Y-64184819D02*
X119483809Y-63184819D01*
X119483809Y-63184819D02*
X119388571Y-63327676D01*
X119388571Y-63327676D02*
X119293333Y-63422914D01*
X119293333Y-63422914D02*
X119198095Y-63470533D01*
X210666666Y-43624819D02*
X210666666Y-44339104D01*
X210666666Y-44339104D02*
X210619047Y-44481961D01*
X210619047Y-44481961D02*
X210523809Y-44577200D01*
X210523809Y-44577200D02*
X210380952Y-44624819D01*
X210380952Y-44624819D02*
X210285714Y-44624819D01*
X211095238Y-43720057D02*
X211142857Y-43672438D01*
X211142857Y-43672438D02*
X211238095Y-43624819D01*
X211238095Y-43624819D02*
X211476190Y-43624819D01*
X211476190Y-43624819D02*
X211571428Y-43672438D01*
X211571428Y-43672438D02*
X211619047Y-43720057D01*
X211619047Y-43720057D02*
X211666666Y-43815295D01*
X211666666Y-43815295D02*
X211666666Y-43910533D01*
X211666666Y-43910533D02*
X211619047Y-44053390D01*
X211619047Y-44053390D02*
X211047619Y-44624819D01*
X211047619Y-44624819D02*
X211666666Y-44624819D01*
X107333333Y-50859580D02*
X107285714Y-50907200D01*
X107285714Y-50907200D02*
X107142857Y-50954819D01*
X107142857Y-50954819D02*
X107047619Y-50954819D01*
X107047619Y-50954819D02*
X106904762Y-50907200D01*
X106904762Y-50907200D02*
X106809524Y-50811961D01*
X106809524Y-50811961D02*
X106761905Y-50716723D01*
X106761905Y-50716723D02*
X106714286Y-50526247D01*
X106714286Y-50526247D02*
X106714286Y-50383390D01*
X106714286Y-50383390D02*
X106761905Y-50192914D01*
X106761905Y-50192914D02*
X106809524Y-50097676D01*
X106809524Y-50097676D02*
X106904762Y-50002438D01*
X106904762Y-50002438D02*
X107047619Y-49954819D01*
X107047619Y-49954819D02*
X107142857Y-49954819D01*
X107142857Y-49954819D02*
X107285714Y-50002438D01*
X107285714Y-50002438D02*
X107333333Y-50050057D01*
X107666667Y-49954819D02*
X108285714Y-49954819D01*
X108285714Y-49954819D02*
X107952381Y-50335771D01*
X107952381Y-50335771D02*
X108095238Y-50335771D01*
X108095238Y-50335771D02*
X108190476Y-50383390D01*
X108190476Y-50383390D02*
X108238095Y-50431009D01*
X108238095Y-50431009D02*
X108285714Y-50526247D01*
X108285714Y-50526247D02*
X108285714Y-50764342D01*
X108285714Y-50764342D02*
X108238095Y-50859580D01*
X108238095Y-50859580D02*
X108190476Y-50907200D01*
X108190476Y-50907200D02*
X108095238Y-50954819D01*
X108095238Y-50954819D02*
X107809524Y-50954819D01*
X107809524Y-50954819D02*
X107714286Y-50907200D01*
X107714286Y-50907200D02*
X107666667Y-50859580D01*
X155548095Y-80544819D02*
X155548095Y-81354342D01*
X155548095Y-81354342D02*
X155595714Y-81449580D01*
X155595714Y-81449580D02*
X155643333Y-81497200D01*
X155643333Y-81497200D02*
X155738571Y-81544819D01*
X155738571Y-81544819D02*
X155929047Y-81544819D01*
X155929047Y-81544819D02*
X156024285Y-81497200D01*
X156024285Y-81497200D02*
X156071904Y-81449580D01*
X156071904Y-81449580D02*
X156119523Y-81354342D01*
X156119523Y-81354342D02*
X156119523Y-80544819D01*
X156500476Y-80544819D02*
X157119523Y-80544819D01*
X157119523Y-80544819D02*
X156786190Y-80925771D01*
X156786190Y-80925771D02*
X156929047Y-80925771D01*
X156929047Y-80925771D02*
X157024285Y-80973390D01*
X157024285Y-80973390D02*
X157071904Y-81021009D01*
X157071904Y-81021009D02*
X157119523Y-81116247D01*
X157119523Y-81116247D02*
X157119523Y-81354342D01*
X157119523Y-81354342D02*
X157071904Y-81449580D01*
X157071904Y-81449580D02*
X157024285Y-81497200D01*
X157024285Y-81497200D02*
X156929047Y-81544819D01*
X156929047Y-81544819D02*
X156643333Y-81544819D01*
X156643333Y-81544819D02*
X156548095Y-81497200D01*
X156548095Y-81497200D02*
X156500476Y-81449580D01*
X123394761Y-101440057D02*
X123299523Y-101392438D01*
X123299523Y-101392438D02*
X123204285Y-101297200D01*
X123204285Y-101297200D02*
X123061428Y-101154342D01*
X123061428Y-101154342D02*
X122966190Y-101106723D01*
X122966190Y-101106723D02*
X122870952Y-101106723D01*
X122918571Y-101344819D02*
X122823333Y-101297200D01*
X122823333Y-101297200D02*
X122728095Y-101201961D01*
X122728095Y-101201961D02*
X122680476Y-101011485D01*
X122680476Y-101011485D02*
X122680476Y-100678152D01*
X122680476Y-100678152D02*
X122728095Y-100487676D01*
X122728095Y-100487676D02*
X122823333Y-100392438D01*
X122823333Y-100392438D02*
X122918571Y-100344819D01*
X122918571Y-100344819D02*
X123109047Y-100344819D01*
X123109047Y-100344819D02*
X123204285Y-100392438D01*
X123204285Y-100392438D02*
X123299523Y-100487676D01*
X123299523Y-100487676D02*
X123347142Y-100678152D01*
X123347142Y-100678152D02*
X123347142Y-101011485D01*
X123347142Y-101011485D02*
X123299523Y-101201961D01*
X123299523Y-101201961D02*
X123204285Y-101297200D01*
X123204285Y-101297200D02*
X123109047Y-101344819D01*
X123109047Y-101344819D02*
X122918571Y-101344819D01*
X124299523Y-101344819D02*
X123728095Y-101344819D01*
X124013809Y-101344819D02*
X124013809Y-100344819D01*
X124013809Y-100344819D02*
X123918571Y-100487676D01*
X123918571Y-100487676D02*
X123823333Y-100582914D01*
X123823333Y-100582914D02*
X123728095Y-100630533D01*
X123993333Y-58184819D02*
X123660000Y-57708628D01*
X123421905Y-58184819D02*
X123421905Y-57184819D01*
X123421905Y-57184819D02*
X123802857Y-57184819D01*
X123802857Y-57184819D02*
X123898095Y-57232438D01*
X123898095Y-57232438D02*
X123945714Y-57280057D01*
X123945714Y-57280057D02*
X123993333Y-57375295D01*
X123993333Y-57375295D02*
X123993333Y-57518152D01*
X123993333Y-57518152D02*
X123945714Y-57613390D01*
X123945714Y-57613390D02*
X123898095Y-57661009D01*
X123898095Y-57661009D02*
X123802857Y-57708628D01*
X123802857Y-57708628D02*
X123421905Y-57708628D01*
X124374286Y-57280057D02*
X124421905Y-57232438D01*
X124421905Y-57232438D02*
X124517143Y-57184819D01*
X124517143Y-57184819D02*
X124755238Y-57184819D01*
X124755238Y-57184819D02*
X124850476Y-57232438D01*
X124850476Y-57232438D02*
X124898095Y-57280057D01*
X124898095Y-57280057D02*
X124945714Y-57375295D01*
X124945714Y-57375295D02*
X124945714Y-57470533D01*
X124945714Y-57470533D02*
X124898095Y-57613390D01*
X124898095Y-57613390D02*
X124326667Y-58184819D01*
X124326667Y-58184819D02*
X124945714Y-58184819D01*
X132333333Y-65009580D02*
X132285714Y-65057200D01*
X132285714Y-65057200D02*
X132142857Y-65104819D01*
X132142857Y-65104819D02*
X132047619Y-65104819D01*
X132047619Y-65104819D02*
X131904762Y-65057200D01*
X131904762Y-65057200D02*
X131809524Y-64961961D01*
X131809524Y-64961961D02*
X131761905Y-64866723D01*
X131761905Y-64866723D02*
X131714286Y-64676247D01*
X131714286Y-64676247D02*
X131714286Y-64533390D01*
X131714286Y-64533390D02*
X131761905Y-64342914D01*
X131761905Y-64342914D02*
X131809524Y-64247676D01*
X131809524Y-64247676D02*
X131904762Y-64152438D01*
X131904762Y-64152438D02*
X132047619Y-64104819D01*
X132047619Y-64104819D02*
X132142857Y-64104819D01*
X132142857Y-64104819D02*
X132285714Y-64152438D01*
X132285714Y-64152438D02*
X132333333Y-64200057D01*
X133285714Y-65104819D02*
X132714286Y-65104819D01*
X133000000Y-65104819D02*
X133000000Y-64104819D01*
X133000000Y-64104819D02*
X132904762Y-64247676D01*
X132904762Y-64247676D02*
X132809524Y-64342914D01*
X132809524Y-64342914D02*
X132714286Y-64390533D01*
X192333333Y-63084819D02*
X192000000Y-62608628D01*
X191761905Y-63084819D02*
X191761905Y-62084819D01*
X191761905Y-62084819D02*
X192142857Y-62084819D01*
X192142857Y-62084819D02*
X192238095Y-62132438D01*
X192238095Y-62132438D02*
X192285714Y-62180057D01*
X192285714Y-62180057D02*
X192333333Y-62275295D01*
X192333333Y-62275295D02*
X192333333Y-62418152D01*
X192333333Y-62418152D02*
X192285714Y-62513390D01*
X192285714Y-62513390D02*
X192238095Y-62561009D01*
X192238095Y-62561009D02*
X192142857Y-62608628D01*
X192142857Y-62608628D02*
X191761905Y-62608628D01*
X192809524Y-63084819D02*
X193000000Y-63084819D01*
X193000000Y-63084819D02*
X193095238Y-63037200D01*
X193095238Y-63037200D02*
X193142857Y-62989580D01*
X193142857Y-62989580D02*
X193238095Y-62846723D01*
X193238095Y-62846723D02*
X193285714Y-62656247D01*
X193285714Y-62656247D02*
X193285714Y-62275295D01*
X193285714Y-62275295D02*
X193238095Y-62180057D01*
X193238095Y-62180057D02*
X193190476Y-62132438D01*
X193190476Y-62132438D02*
X193095238Y-62084819D01*
X193095238Y-62084819D02*
X192904762Y-62084819D01*
X192904762Y-62084819D02*
X192809524Y-62132438D01*
X192809524Y-62132438D02*
X192761905Y-62180057D01*
X192761905Y-62180057D02*
X192714286Y-62275295D01*
X192714286Y-62275295D02*
X192714286Y-62513390D01*
X192714286Y-62513390D02*
X192761905Y-62608628D01*
X192761905Y-62608628D02*
X192809524Y-62656247D01*
X192809524Y-62656247D02*
X192904762Y-62703866D01*
X192904762Y-62703866D02*
X193095238Y-62703866D01*
X193095238Y-62703866D02*
X193190476Y-62656247D01*
X193190476Y-62656247D02*
X193238095Y-62608628D01*
X193238095Y-62608628D02*
X193285714Y-62513390D01*
X135728095Y-99909819D02*
X135728095Y-100719342D01*
X135728095Y-100719342D02*
X135775714Y-100814580D01*
X135775714Y-100814580D02*
X135823333Y-100862200D01*
X135823333Y-100862200D02*
X135918571Y-100909819D01*
X135918571Y-100909819D02*
X136109047Y-100909819D01*
X136109047Y-100909819D02*
X136204285Y-100862200D01*
X136204285Y-100862200D02*
X136251904Y-100814580D01*
X136251904Y-100814580D02*
X136299523Y-100719342D01*
X136299523Y-100719342D02*
X136299523Y-99909819D01*
X136728095Y-100005057D02*
X136775714Y-99957438D01*
X136775714Y-99957438D02*
X136870952Y-99909819D01*
X136870952Y-99909819D02*
X137109047Y-99909819D01*
X137109047Y-99909819D02*
X137204285Y-99957438D01*
X137204285Y-99957438D02*
X137251904Y-100005057D01*
X137251904Y-100005057D02*
X137299523Y-100100295D01*
X137299523Y-100100295D02*
X137299523Y-100195533D01*
X137299523Y-100195533D02*
X137251904Y-100338390D01*
X137251904Y-100338390D02*
X136680476Y-100909819D01*
X136680476Y-100909819D02*
X137299523Y-100909819D01*
X85738095Y-41454819D02*
X85738095Y-40454819D01*
X85738095Y-40931009D02*
X86309523Y-40931009D01*
X86309523Y-41454819D02*
X86309523Y-40454819D01*
X87309523Y-41454819D02*
X86738095Y-41454819D01*
X87023809Y-41454819D02*
X87023809Y-40454819D01*
X87023809Y-40454819D02*
X86928571Y-40597676D01*
X86928571Y-40597676D02*
X86833333Y-40692914D01*
X86833333Y-40692914D02*
X86738095Y-40740533D01*
X85738095Y-105204819D02*
X85738095Y-104204819D01*
X85738095Y-104681009D02*
X86309523Y-104681009D01*
X86309523Y-105204819D02*
X86309523Y-104204819D01*
X86738095Y-104300057D02*
X86785714Y-104252438D01*
X86785714Y-104252438D02*
X86880952Y-104204819D01*
X86880952Y-104204819D02*
X87119047Y-104204819D01*
X87119047Y-104204819D02*
X87214285Y-104252438D01*
X87214285Y-104252438D02*
X87261904Y-104300057D01*
X87261904Y-104300057D02*
X87309523Y-104395295D01*
X87309523Y-104395295D02*
X87309523Y-104490533D01*
X87309523Y-104490533D02*
X87261904Y-104633390D01*
X87261904Y-104633390D02*
X86690476Y-105204819D01*
X86690476Y-105204819D02*
X87309523Y-105204819D01*
X154738095Y-45954819D02*
X154738095Y-46764342D01*
X154738095Y-46764342D02*
X154785714Y-46859580D01*
X154785714Y-46859580D02*
X154833333Y-46907200D01*
X154833333Y-46907200D02*
X154928571Y-46954819D01*
X154928571Y-46954819D02*
X155119047Y-46954819D01*
X155119047Y-46954819D02*
X155214285Y-46907200D01*
X155214285Y-46907200D02*
X155261904Y-46859580D01*
X155261904Y-46859580D02*
X155309523Y-46764342D01*
X155309523Y-46764342D02*
X155309523Y-45954819D01*
X156261904Y-45954819D02*
X155785714Y-45954819D01*
X155785714Y-45954819D02*
X155738095Y-46431009D01*
X155738095Y-46431009D02*
X155785714Y-46383390D01*
X155785714Y-46383390D02*
X155880952Y-46335771D01*
X155880952Y-46335771D02*
X156119047Y-46335771D01*
X156119047Y-46335771D02*
X156214285Y-46383390D01*
X156214285Y-46383390D02*
X156261904Y-46431009D01*
X156261904Y-46431009D02*
X156309523Y-46526247D01*
X156309523Y-46526247D02*
X156309523Y-46764342D01*
X156309523Y-46764342D02*
X156261904Y-46859580D01*
X156261904Y-46859580D02*
X156214285Y-46907200D01*
X156214285Y-46907200D02*
X156119047Y-46954819D01*
X156119047Y-46954819D02*
X155880952Y-46954819D01*
X155880952Y-46954819D02*
X155785714Y-46907200D01*
X155785714Y-46907200D02*
X155738095Y-46859580D01*
X174333333Y-57584819D02*
X174000000Y-57108628D01*
X173761905Y-57584819D02*
X173761905Y-56584819D01*
X173761905Y-56584819D02*
X174142857Y-56584819D01*
X174142857Y-56584819D02*
X174238095Y-56632438D01*
X174238095Y-56632438D02*
X174285714Y-56680057D01*
X174285714Y-56680057D02*
X174333333Y-56775295D01*
X174333333Y-56775295D02*
X174333333Y-56918152D01*
X174333333Y-56918152D02*
X174285714Y-57013390D01*
X174285714Y-57013390D02*
X174238095Y-57061009D01*
X174238095Y-57061009D02*
X174142857Y-57108628D01*
X174142857Y-57108628D02*
X173761905Y-57108628D01*
X174904762Y-57013390D02*
X174809524Y-56965771D01*
X174809524Y-56965771D02*
X174761905Y-56918152D01*
X174761905Y-56918152D02*
X174714286Y-56822914D01*
X174714286Y-56822914D02*
X174714286Y-56775295D01*
X174714286Y-56775295D02*
X174761905Y-56680057D01*
X174761905Y-56680057D02*
X174809524Y-56632438D01*
X174809524Y-56632438D02*
X174904762Y-56584819D01*
X174904762Y-56584819D02*
X175095238Y-56584819D01*
X175095238Y-56584819D02*
X175190476Y-56632438D01*
X175190476Y-56632438D02*
X175238095Y-56680057D01*
X175238095Y-56680057D02*
X175285714Y-56775295D01*
X175285714Y-56775295D02*
X175285714Y-56822914D01*
X175285714Y-56822914D02*
X175238095Y-56918152D01*
X175238095Y-56918152D02*
X175190476Y-56965771D01*
X175190476Y-56965771D02*
X175095238Y-57013390D01*
X175095238Y-57013390D02*
X174904762Y-57013390D01*
X174904762Y-57013390D02*
X174809524Y-57061009D01*
X174809524Y-57061009D02*
X174761905Y-57108628D01*
X174761905Y-57108628D02*
X174714286Y-57203866D01*
X174714286Y-57203866D02*
X174714286Y-57394342D01*
X174714286Y-57394342D02*
X174761905Y-57489580D01*
X174761905Y-57489580D02*
X174809524Y-57537200D01*
X174809524Y-57537200D02*
X174904762Y-57584819D01*
X174904762Y-57584819D02*
X175095238Y-57584819D01*
X175095238Y-57584819D02*
X175190476Y-57537200D01*
X175190476Y-57537200D02*
X175238095Y-57489580D01*
X175238095Y-57489580D02*
X175285714Y-57394342D01*
X175285714Y-57394342D02*
X175285714Y-57203866D01*
X175285714Y-57203866D02*
X175238095Y-57108628D01*
X175238095Y-57108628D02*
X175190476Y-57061009D01*
X175190476Y-57061009D02*
X175095238Y-57013390D01*
X212738095Y-41454819D02*
X212738095Y-40454819D01*
X212738095Y-40931009D02*
X213309523Y-40931009D01*
X213309523Y-41454819D02*
X213309523Y-40454819D01*
X213690476Y-40454819D02*
X214309523Y-40454819D01*
X214309523Y-40454819D02*
X213976190Y-40835771D01*
X213976190Y-40835771D02*
X214119047Y-40835771D01*
X214119047Y-40835771D02*
X214214285Y-40883390D01*
X214214285Y-40883390D02*
X214261904Y-40931009D01*
X214261904Y-40931009D02*
X214309523Y-41026247D01*
X214309523Y-41026247D02*
X214309523Y-41264342D01*
X214309523Y-41264342D02*
X214261904Y-41359580D01*
X214261904Y-41359580D02*
X214214285Y-41407200D01*
X214214285Y-41407200D02*
X214119047Y-41454819D01*
X214119047Y-41454819D02*
X213833333Y-41454819D01*
X213833333Y-41454819D02*
X213738095Y-41407200D01*
X213738095Y-41407200D02*
X213690476Y-41359580D01*
X122261905Y-47984819D02*
X122261905Y-46984819D01*
X122261905Y-46984819D02*
X122500000Y-46984819D01*
X122500000Y-46984819D02*
X122642857Y-47032438D01*
X122642857Y-47032438D02*
X122738095Y-47127676D01*
X122738095Y-47127676D02*
X122785714Y-47222914D01*
X122785714Y-47222914D02*
X122833333Y-47413390D01*
X122833333Y-47413390D02*
X122833333Y-47556247D01*
X122833333Y-47556247D02*
X122785714Y-47746723D01*
X122785714Y-47746723D02*
X122738095Y-47841961D01*
X122738095Y-47841961D02*
X122642857Y-47937200D01*
X122642857Y-47937200D02*
X122500000Y-47984819D01*
X122500000Y-47984819D02*
X122261905Y-47984819D01*
X123214286Y-47080057D02*
X123261905Y-47032438D01*
X123261905Y-47032438D02*
X123357143Y-46984819D01*
X123357143Y-46984819D02*
X123595238Y-46984819D01*
X123595238Y-46984819D02*
X123690476Y-47032438D01*
X123690476Y-47032438D02*
X123738095Y-47080057D01*
X123738095Y-47080057D02*
X123785714Y-47175295D01*
X123785714Y-47175295D02*
X123785714Y-47270533D01*
X123785714Y-47270533D02*
X123738095Y-47413390D01*
X123738095Y-47413390D02*
X123166667Y-47984819D01*
X123166667Y-47984819D02*
X123785714Y-47984819D01*
X117658095Y-48354819D02*
X117658095Y-47354819D01*
X118229523Y-48354819D02*
X117800952Y-47783390D01*
X118229523Y-47354819D02*
X117658095Y-47926247D01*
X111533108Y-45409580D02*
X111485489Y-45457200D01*
X111485489Y-45457200D02*
X111342632Y-45504819D01*
X111342632Y-45504819D02*
X111247394Y-45504819D01*
X111247394Y-45504819D02*
X111104537Y-45457200D01*
X111104537Y-45457200D02*
X111009299Y-45361961D01*
X111009299Y-45361961D02*
X110961680Y-45266723D01*
X110961680Y-45266723D02*
X110914061Y-45076247D01*
X110914061Y-45076247D02*
X110914061Y-44933390D01*
X110914061Y-44933390D02*
X110961680Y-44742914D01*
X110961680Y-44742914D02*
X111009299Y-44647676D01*
X111009299Y-44647676D02*
X111104537Y-44552438D01*
X111104537Y-44552438D02*
X111247394Y-44504819D01*
X111247394Y-44504819D02*
X111342632Y-44504819D01*
X111342632Y-44504819D02*
X111485489Y-44552438D01*
X111485489Y-44552438D02*
X111533108Y-44600057D01*
X111914061Y-44600057D02*
X111961680Y-44552438D01*
X111961680Y-44552438D02*
X112056918Y-44504819D01*
X112056918Y-44504819D02*
X112295013Y-44504819D01*
X112295013Y-44504819D02*
X112390251Y-44552438D01*
X112390251Y-44552438D02*
X112437870Y-44600057D01*
X112437870Y-44600057D02*
X112485489Y-44695295D01*
X112485489Y-44695295D02*
X112485489Y-44790533D01*
X112485489Y-44790533D02*
X112437870Y-44933390D01*
X112437870Y-44933390D02*
X111866442Y-45504819D01*
X111866442Y-45504819D02*
X112485489Y-45504819D01*
X179333333Y-95584819D02*
X179000000Y-95108628D01*
X178761905Y-95584819D02*
X178761905Y-94584819D01*
X178761905Y-94584819D02*
X179142857Y-94584819D01*
X179142857Y-94584819D02*
X179238095Y-94632438D01*
X179238095Y-94632438D02*
X179285714Y-94680057D01*
X179285714Y-94680057D02*
X179333333Y-94775295D01*
X179333333Y-94775295D02*
X179333333Y-94918152D01*
X179333333Y-94918152D02*
X179285714Y-95013390D01*
X179285714Y-95013390D02*
X179238095Y-95061009D01*
X179238095Y-95061009D02*
X179142857Y-95108628D01*
X179142857Y-95108628D02*
X178761905Y-95108628D01*
X180190476Y-94918152D02*
X180190476Y-95584819D01*
X179952381Y-94537200D02*
X179714286Y-95251485D01*
X179714286Y-95251485D02*
X180333333Y-95251485D01*
X166857142Y-64584819D02*
X166523809Y-64108628D01*
X166285714Y-64584819D02*
X166285714Y-63584819D01*
X166285714Y-63584819D02*
X166666666Y-63584819D01*
X166666666Y-63584819D02*
X166761904Y-63632438D01*
X166761904Y-63632438D02*
X166809523Y-63680057D01*
X166809523Y-63680057D02*
X166857142Y-63775295D01*
X166857142Y-63775295D02*
X166857142Y-63918152D01*
X166857142Y-63918152D02*
X166809523Y-64013390D01*
X166809523Y-64013390D02*
X166761904Y-64061009D01*
X166761904Y-64061009D02*
X166666666Y-64108628D01*
X166666666Y-64108628D02*
X166285714Y-64108628D01*
X167809523Y-64584819D02*
X167238095Y-64584819D01*
X167523809Y-64584819D02*
X167523809Y-63584819D01*
X167523809Y-63584819D02*
X167428571Y-63727676D01*
X167428571Y-63727676D02*
X167333333Y-63822914D01*
X167333333Y-63822914D02*
X167238095Y-63870533D01*
X168428571Y-63584819D02*
X168523809Y-63584819D01*
X168523809Y-63584819D02*
X168619047Y-63632438D01*
X168619047Y-63632438D02*
X168666666Y-63680057D01*
X168666666Y-63680057D02*
X168714285Y-63775295D01*
X168714285Y-63775295D02*
X168761904Y-63965771D01*
X168761904Y-63965771D02*
X168761904Y-64203866D01*
X168761904Y-64203866D02*
X168714285Y-64394342D01*
X168714285Y-64394342D02*
X168666666Y-64489580D01*
X168666666Y-64489580D02*
X168619047Y-64537200D01*
X168619047Y-64537200D02*
X168523809Y-64584819D01*
X168523809Y-64584819D02*
X168428571Y-64584819D01*
X168428571Y-64584819D02*
X168333333Y-64537200D01*
X168333333Y-64537200D02*
X168285714Y-64489580D01*
X168285714Y-64489580D02*
X168238095Y-64394342D01*
X168238095Y-64394342D02*
X168190476Y-64203866D01*
X168190476Y-64203866D02*
X168190476Y-63965771D01*
X168190476Y-63965771D02*
X168238095Y-63775295D01*
X168238095Y-63775295D02*
X168285714Y-63680057D01*
X168285714Y-63680057D02*
X168333333Y-63632438D01*
X168333333Y-63632438D02*
X168428571Y-63584819D01*
X192748095Y-55454819D02*
X192748095Y-56264342D01*
X192748095Y-56264342D02*
X192795714Y-56359580D01*
X192795714Y-56359580D02*
X192843333Y-56407200D01*
X192843333Y-56407200D02*
X192938571Y-56454819D01*
X192938571Y-56454819D02*
X193129047Y-56454819D01*
X193129047Y-56454819D02*
X193224285Y-56407200D01*
X193224285Y-56407200D02*
X193271904Y-56359580D01*
X193271904Y-56359580D02*
X193319523Y-56264342D01*
X193319523Y-56264342D02*
X193319523Y-55454819D01*
X194224285Y-55454819D02*
X194033809Y-55454819D01*
X194033809Y-55454819D02*
X193938571Y-55502438D01*
X193938571Y-55502438D02*
X193890952Y-55550057D01*
X193890952Y-55550057D02*
X193795714Y-55692914D01*
X193795714Y-55692914D02*
X193748095Y-55883390D01*
X193748095Y-55883390D02*
X193748095Y-56264342D01*
X193748095Y-56264342D02*
X193795714Y-56359580D01*
X193795714Y-56359580D02*
X193843333Y-56407200D01*
X193843333Y-56407200D02*
X193938571Y-56454819D01*
X193938571Y-56454819D02*
X194129047Y-56454819D01*
X194129047Y-56454819D02*
X194224285Y-56407200D01*
X194224285Y-56407200D02*
X194271904Y-56359580D01*
X194271904Y-56359580D02*
X194319523Y-56264342D01*
X194319523Y-56264342D02*
X194319523Y-56026247D01*
X194319523Y-56026247D02*
X194271904Y-55931009D01*
X194271904Y-55931009D02*
X194224285Y-55883390D01*
X194224285Y-55883390D02*
X194129047Y-55835771D01*
X194129047Y-55835771D02*
X193938571Y-55835771D01*
X193938571Y-55835771D02*
X193843333Y-55883390D01*
X193843333Y-55883390D02*
X193795714Y-55931009D01*
X193795714Y-55931009D02*
X193748095Y-56026247D01*
X179833333Y-101584819D02*
X179500000Y-101108628D01*
X179261905Y-101584819D02*
X179261905Y-100584819D01*
X179261905Y-100584819D02*
X179642857Y-100584819D01*
X179642857Y-100584819D02*
X179738095Y-100632438D01*
X179738095Y-100632438D02*
X179785714Y-100680057D01*
X179785714Y-100680057D02*
X179833333Y-100775295D01*
X179833333Y-100775295D02*
X179833333Y-100918152D01*
X179833333Y-100918152D02*
X179785714Y-101013390D01*
X179785714Y-101013390D02*
X179738095Y-101061009D01*
X179738095Y-101061009D02*
X179642857Y-101108628D01*
X179642857Y-101108628D02*
X179261905Y-101108628D01*
X180738095Y-100584819D02*
X180261905Y-100584819D01*
X180261905Y-100584819D02*
X180214286Y-101061009D01*
X180214286Y-101061009D02*
X180261905Y-101013390D01*
X180261905Y-101013390D02*
X180357143Y-100965771D01*
X180357143Y-100965771D02*
X180595238Y-100965771D01*
X180595238Y-100965771D02*
X180690476Y-101013390D01*
X180690476Y-101013390D02*
X180738095Y-101061009D01*
X180738095Y-101061009D02*
X180785714Y-101156247D01*
X180785714Y-101156247D02*
X180785714Y-101394342D01*
X180785714Y-101394342D02*
X180738095Y-101489580D01*
X180738095Y-101489580D02*
X180690476Y-101537200D01*
X180690476Y-101537200D02*
X180595238Y-101584819D01*
X180595238Y-101584819D02*
X180357143Y-101584819D01*
X180357143Y-101584819D02*
X180261905Y-101537200D01*
X180261905Y-101537200D02*
X180214286Y-101489580D01*
X179833333Y-89584819D02*
X179500000Y-89108628D01*
X179261905Y-89584819D02*
X179261905Y-88584819D01*
X179261905Y-88584819D02*
X179642857Y-88584819D01*
X179642857Y-88584819D02*
X179738095Y-88632438D01*
X179738095Y-88632438D02*
X179785714Y-88680057D01*
X179785714Y-88680057D02*
X179833333Y-88775295D01*
X179833333Y-88775295D02*
X179833333Y-88918152D01*
X179833333Y-88918152D02*
X179785714Y-89013390D01*
X179785714Y-89013390D02*
X179738095Y-89061009D01*
X179738095Y-89061009D02*
X179642857Y-89108628D01*
X179642857Y-89108628D02*
X179261905Y-89108628D01*
X180166667Y-88584819D02*
X180785714Y-88584819D01*
X180785714Y-88584819D02*
X180452381Y-88965771D01*
X180452381Y-88965771D02*
X180595238Y-88965771D01*
X180595238Y-88965771D02*
X180690476Y-89013390D01*
X180690476Y-89013390D02*
X180738095Y-89061009D01*
X180738095Y-89061009D02*
X180785714Y-89156247D01*
X180785714Y-89156247D02*
X180785714Y-89394342D01*
X180785714Y-89394342D02*
X180738095Y-89489580D01*
X180738095Y-89489580D02*
X180690476Y-89537200D01*
X180690476Y-89537200D02*
X180595238Y-89584819D01*
X180595238Y-89584819D02*
X180309524Y-89584819D01*
X180309524Y-89584819D02*
X180214286Y-89537200D01*
X180214286Y-89537200D02*
X180166667Y-89489580D01*
X122261905Y-42984819D02*
X122261905Y-41984819D01*
X122261905Y-41984819D02*
X122500000Y-41984819D01*
X122500000Y-41984819D02*
X122642857Y-42032438D01*
X122642857Y-42032438D02*
X122738095Y-42127676D01*
X122738095Y-42127676D02*
X122785714Y-42222914D01*
X122785714Y-42222914D02*
X122833333Y-42413390D01*
X122833333Y-42413390D02*
X122833333Y-42556247D01*
X122833333Y-42556247D02*
X122785714Y-42746723D01*
X122785714Y-42746723D02*
X122738095Y-42841961D01*
X122738095Y-42841961D02*
X122642857Y-42937200D01*
X122642857Y-42937200D02*
X122500000Y-42984819D01*
X122500000Y-42984819D02*
X122261905Y-42984819D01*
X123785714Y-42984819D02*
X123214286Y-42984819D01*
X123500000Y-42984819D02*
X123500000Y-41984819D01*
X123500000Y-41984819D02*
X123404762Y-42127676D01*
X123404762Y-42127676D02*
X123309524Y-42222914D01*
X123309524Y-42222914D02*
X123214286Y-42270533D01*
X117658095Y-43354819D02*
X117658095Y-42354819D01*
X118229523Y-43354819D02*
X117800952Y-42783390D01*
X118229523Y-42354819D02*
X117658095Y-42926247D01*
X174833333Y-52084819D02*
X174500000Y-51608628D01*
X174261905Y-52084819D02*
X174261905Y-51084819D01*
X174261905Y-51084819D02*
X174642857Y-51084819D01*
X174642857Y-51084819D02*
X174738095Y-51132438D01*
X174738095Y-51132438D02*
X174785714Y-51180057D01*
X174785714Y-51180057D02*
X174833333Y-51275295D01*
X174833333Y-51275295D02*
X174833333Y-51418152D01*
X174833333Y-51418152D02*
X174785714Y-51513390D01*
X174785714Y-51513390D02*
X174738095Y-51561009D01*
X174738095Y-51561009D02*
X174642857Y-51608628D01*
X174642857Y-51608628D02*
X174261905Y-51608628D01*
X175166667Y-51084819D02*
X175833333Y-51084819D01*
X175833333Y-51084819D02*
X175404762Y-52084819D01*
X125333333Y-53084819D02*
X125000000Y-52608628D01*
X124761905Y-53084819D02*
X124761905Y-52084819D01*
X124761905Y-52084819D02*
X125142857Y-52084819D01*
X125142857Y-52084819D02*
X125238095Y-52132438D01*
X125238095Y-52132438D02*
X125285714Y-52180057D01*
X125285714Y-52180057D02*
X125333333Y-52275295D01*
X125333333Y-52275295D02*
X125333333Y-52418152D01*
X125333333Y-52418152D02*
X125285714Y-52513390D01*
X125285714Y-52513390D02*
X125238095Y-52561009D01*
X125238095Y-52561009D02*
X125142857Y-52608628D01*
X125142857Y-52608628D02*
X124761905Y-52608628D01*
X126285714Y-53084819D02*
X125714286Y-53084819D01*
X126000000Y-53084819D02*
X126000000Y-52084819D01*
X126000000Y-52084819D02*
X125904762Y-52227676D01*
X125904762Y-52227676D02*
X125809524Y-52322914D01*
X125809524Y-52322914D02*
X125714286Y-52370533D01*
X116748095Y-79499819D02*
X116748095Y-80309342D01*
X116748095Y-80309342D02*
X116795714Y-80404580D01*
X116795714Y-80404580D02*
X116843333Y-80452200D01*
X116843333Y-80452200D02*
X116938571Y-80499819D01*
X116938571Y-80499819D02*
X117129047Y-80499819D01*
X117129047Y-80499819D02*
X117224285Y-80452200D01*
X117224285Y-80452200D02*
X117271904Y-80404580D01*
X117271904Y-80404580D02*
X117319523Y-80309342D01*
X117319523Y-80309342D02*
X117319523Y-79499819D01*
X118224285Y-79833152D02*
X118224285Y-80499819D01*
X117986190Y-79452200D02*
X117748095Y-80166485D01*
X117748095Y-80166485D02*
X118367142Y-80166485D01*
X182833333Y-81509580D02*
X182785714Y-81557200D01*
X182785714Y-81557200D02*
X182642857Y-81604819D01*
X182642857Y-81604819D02*
X182547619Y-81604819D01*
X182547619Y-81604819D02*
X182404762Y-81557200D01*
X182404762Y-81557200D02*
X182309524Y-81461961D01*
X182309524Y-81461961D02*
X182261905Y-81366723D01*
X182261905Y-81366723D02*
X182214286Y-81176247D01*
X182214286Y-81176247D02*
X182214286Y-81033390D01*
X182214286Y-81033390D02*
X182261905Y-80842914D01*
X182261905Y-80842914D02*
X182309524Y-80747676D01*
X182309524Y-80747676D02*
X182404762Y-80652438D01*
X182404762Y-80652438D02*
X182547619Y-80604819D01*
X182547619Y-80604819D02*
X182642857Y-80604819D01*
X182642857Y-80604819D02*
X182785714Y-80652438D01*
X182785714Y-80652438D02*
X182833333Y-80700057D01*
X183690476Y-80938152D02*
X183690476Y-81604819D01*
X183452381Y-80557200D02*
X183214286Y-81271485D01*
X183214286Y-81271485D02*
X183833333Y-81271485D01*
X90166666Y-43584819D02*
X90166666Y-44299104D01*
X90166666Y-44299104D02*
X90119047Y-44441961D01*
X90119047Y-44441961D02*
X90023809Y-44537200D01*
X90023809Y-44537200D02*
X89880952Y-44584819D01*
X89880952Y-44584819D02*
X89785714Y-44584819D01*
X91166666Y-44584819D02*
X90595238Y-44584819D01*
X90880952Y-44584819D02*
X90880952Y-43584819D01*
X90880952Y-43584819D02*
X90785714Y-43727676D01*
X90785714Y-43727676D02*
X90690476Y-43822914D01*
X90690476Y-43822914D02*
X90595238Y-43870533D01*
X212738095Y-105204819D02*
X212738095Y-104204819D01*
X212738095Y-104681009D02*
X213309523Y-104681009D01*
X213309523Y-105204819D02*
X213309523Y-104204819D01*
X214214285Y-104538152D02*
X214214285Y-105204819D01*
X213976190Y-104157200D02*
X213738095Y-104871485D01*
X213738095Y-104871485D02*
X214357142Y-104871485D01*
X175333333Y-42584819D02*
X175000000Y-42108628D01*
X174761905Y-42584819D02*
X174761905Y-41584819D01*
X174761905Y-41584819D02*
X175142857Y-41584819D01*
X175142857Y-41584819D02*
X175238095Y-41632438D01*
X175238095Y-41632438D02*
X175285714Y-41680057D01*
X175285714Y-41680057D02*
X175333333Y-41775295D01*
X175333333Y-41775295D02*
X175333333Y-41918152D01*
X175333333Y-41918152D02*
X175285714Y-42013390D01*
X175285714Y-42013390D02*
X175238095Y-42061009D01*
X175238095Y-42061009D02*
X175142857Y-42108628D01*
X175142857Y-42108628D02*
X174761905Y-42108628D01*
X176190476Y-41584819D02*
X176000000Y-41584819D01*
X176000000Y-41584819D02*
X175904762Y-41632438D01*
X175904762Y-41632438D02*
X175857143Y-41680057D01*
X175857143Y-41680057D02*
X175761905Y-41822914D01*
X175761905Y-41822914D02*
X175714286Y-42013390D01*
X175714286Y-42013390D02*
X175714286Y-42394342D01*
X175714286Y-42394342D02*
X175761905Y-42489580D01*
X175761905Y-42489580D02*
X175809524Y-42537200D01*
X175809524Y-42537200D02*
X175904762Y-42584819D01*
X175904762Y-42584819D02*
X176095238Y-42584819D01*
X176095238Y-42584819D02*
X176190476Y-42537200D01*
X176190476Y-42537200D02*
X176238095Y-42489580D01*
X176238095Y-42489580D02*
X176285714Y-42394342D01*
X176285714Y-42394342D02*
X176285714Y-42156247D01*
X176285714Y-42156247D02*
X176238095Y-42061009D01*
X176238095Y-42061009D02*
X176190476Y-42013390D01*
X176190476Y-42013390D02*
X176095238Y-41965771D01*
X176095238Y-41965771D02*
X175904762Y-41965771D01*
X175904762Y-41965771D02*
X175809524Y-42013390D01*
X175809524Y-42013390D02*
X175761905Y-42061009D01*
X175761905Y-42061009D02*
X175714286Y-42156247D01*
D13*
%TO.C,RV1.5*%
X204120000Y-121570000D02*
X198880000Y-121570000D01*
X198880000Y-114570000D02*
X198880000Y-121570000D01*
X204120000Y-114570000D02*
X204120000Y-121570000D01*
X205120000Y-114570000D02*
X197880000Y-114570000D01*
X197880000Y-109570000D02*
X197880000Y-114570000D01*
X205120000Y-109570000D02*
X205120000Y-114570000D01*
X206370000Y-109570000D02*
X196630000Y-109570000D01*
X196630000Y-103929000D02*
X196630000Y-109570000D01*
X206370000Y-103929000D02*
X206370000Y-109570000D01*
X206370000Y-103929000D02*
X196630000Y-103929000D01*
%TO.C,R12*%
X198920000Y-97000000D02*
X202230000Y-97000000D01*
X202230000Y-95630000D02*
X202230000Y-98370000D01*
X202230000Y-98370000D02*
X208770000Y-98370000D01*
X208770000Y-95630000D02*
X202230000Y-95630000D01*
X208770000Y-98370000D02*
X208770000Y-95630000D01*
X212080000Y-97000000D02*
X208770000Y-97000000D01*
%TO.C,R11*%
X197420000Y-90000000D02*
X200730000Y-90000000D01*
X200730000Y-88630000D02*
X200730000Y-91370000D01*
X200730000Y-91370000D02*
X207270000Y-91370000D01*
X207270000Y-88630000D02*
X200730000Y-88630000D01*
X207270000Y-91370000D02*
X207270000Y-88630000D01*
X210580000Y-90000000D02*
X207270000Y-90000000D01*
%TO.C,D3*%
X208435000Y-81955000D02*
X208435000Y-85045000D01*
X208435000Y-81955170D02*
G75*
G02*
X213985000Y-83500462I2560000J-1544830D01*
G01*
X213985000Y-83499538D02*
G75*
G02*
X208435000Y-85044830I-2990000J-462D01*
G01*
X213495000Y-83500000D02*
G75*
G02*
X208495000Y-83500000I-2500000J0D01*
G01*
X208495000Y-83500000D02*
G75*
G02*
X213495000Y-83500000I2500000J0D01*
G01*
%TO.C,C5*%
X192830000Y-73279000D02*
X192830000Y-73945000D01*
X192830000Y-73279000D02*
X198170000Y-73279000D01*
X192830000Y-76055000D02*
X192830000Y-76721000D01*
X192830000Y-76721000D02*
X198170000Y-76721000D01*
X198170000Y-73279000D02*
X198170000Y-73945000D01*
X198170000Y-76055000D02*
X198170000Y-76721000D01*
%TO.C,U1*%
X113840000Y-64730000D02*
X113840000Y-69371000D01*
X113840000Y-64730000D02*
X124080000Y-64730000D01*
X113840000Y-66240000D02*
X124080000Y-66240000D01*
X113840000Y-69371000D02*
X124080000Y-69371000D01*
X117110000Y-64730000D02*
X117110000Y-66240000D01*
X120811000Y-64730000D02*
X120811000Y-66240000D01*
X124080000Y-64730000D02*
X124080000Y-69371000D01*
%TO.C,J2*%
X209670000Y-45170000D02*
X211000000Y-45170000D01*
X209670000Y-46500000D02*
X209670000Y-45170000D01*
X209670000Y-47770000D02*
X209670000Y-65610000D01*
X209670000Y-47770000D02*
X212330000Y-47770000D01*
X209670000Y-65610000D02*
X212330000Y-65610000D01*
X212330000Y-47770000D02*
X212330000Y-65610000D01*
%TO.C,C3*%
X108895000Y-53875000D02*
X109395000Y-53875000D01*
X109145000Y-53625000D02*
X109145000Y-54125000D01*
X111699775Y-52770000D02*
X111699775Y-54310000D01*
X111699775Y-56390000D02*
X111699775Y-57930000D01*
X111739775Y-52770000D02*
X111739775Y-54310000D01*
X111739775Y-56390000D02*
X111739775Y-57930000D01*
X111779775Y-52771000D02*
X111779775Y-54310000D01*
X111779775Y-56390000D02*
X111779775Y-57929000D01*
X111819775Y-52772000D02*
X111819775Y-54310000D01*
X111819775Y-56390000D02*
X111819775Y-57928000D01*
X111859775Y-52774000D02*
X111859775Y-54310000D01*
X111859775Y-56390000D02*
X111859775Y-57926000D01*
X111899775Y-52777000D02*
X111899775Y-54310000D01*
X111899775Y-56390000D02*
X111899775Y-57923000D01*
X111939775Y-52781000D02*
X111939775Y-54310000D01*
X111939775Y-56390000D02*
X111939775Y-57919000D01*
X111979775Y-52785000D02*
X111979775Y-54310000D01*
X111979775Y-56390000D02*
X111979775Y-57915000D01*
X112019775Y-52789000D02*
X112019775Y-54310000D01*
X112019775Y-56390000D02*
X112019775Y-57911000D01*
X112059775Y-52794000D02*
X112059775Y-54310000D01*
X112059775Y-56390000D02*
X112059775Y-57906000D01*
X112099775Y-52800000D02*
X112099775Y-54310000D01*
X112099775Y-56390000D02*
X112099775Y-57900000D01*
X112139775Y-52807000D02*
X112139775Y-54310000D01*
X112139775Y-56390000D02*
X112139775Y-57893000D01*
X112179775Y-52814000D02*
X112179775Y-54310000D01*
X112179775Y-56390000D02*
X112179775Y-57886000D01*
X112219775Y-52822000D02*
X112219775Y-54310000D01*
X112219775Y-56390000D02*
X112219775Y-57878000D01*
X112259775Y-52830000D02*
X112259775Y-54310000D01*
X112259775Y-56390000D02*
X112259775Y-57870000D01*
X112299775Y-52839000D02*
X112299775Y-54310000D01*
X112299775Y-56390000D02*
X112299775Y-57861000D01*
X112339775Y-52849000D02*
X112339775Y-54310000D01*
X112339775Y-56390000D02*
X112339775Y-57851000D01*
X112379775Y-52859000D02*
X112379775Y-54310000D01*
X112379775Y-56390000D02*
X112379775Y-57841000D01*
X112420775Y-52870000D02*
X112420775Y-54310000D01*
X112420775Y-56390000D02*
X112420775Y-57830000D01*
X112460775Y-52882000D02*
X112460775Y-54310000D01*
X112460775Y-56390000D02*
X112460775Y-57818000D01*
X112500775Y-52895000D02*
X112500775Y-54310000D01*
X112500775Y-56390000D02*
X112500775Y-57805000D01*
X112540775Y-52908000D02*
X112540775Y-54310000D01*
X112540775Y-56390000D02*
X112540775Y-57792000D01*
X112580775Y-52922000D02*
X112580775Y-54310000D01*
X112580775Y-56390000D02*
X112580775Y-57778000D01*
X112620775Y-52936000D02*
X112620775Y-54310000D01*
X112620775Y-56390000D02*
X112620775Y-57764000D01*
X112660775Y-52952000D02*
X112660775Y-54310000D01*
X112660775Y-56390000D02*
X112660775Y-57748000D01*
X112700775Y-52968000D02*
X112700775Y-54310000D01*
X112700775Y-56390000D02*
X112700775Y-57732000D01*
X112740775Y-52985000D02*
X112740775Y-54310000D01*
X112740775Y-56390000D02*
X112740775Y-57715000D01*
X112780775Y-53002000D02*
X112780775Y-54310000D01*
X112780775Y-56390000D02*
X112780775Y-57698000D01*
X112820775Y-53021000D02*
X112820775Y-54310000D01*
X112820775Y-56390000D02*
X112820775Y-57679000D01*
X112860775Y-53040000D02*
X112860775Y-54310000D01*
X112860775Y-56390000D02*
X112860775Y-57660000D01*
X112900775Y-53060000D02*
X112900775Y-54310000D01*
X112900775Y-56390000D02*
X112900775Y-57640000D01*
X112940775Y-53082000D02*
X112940775Y-54310000D01*
X112940775Y-56390000D02*
X112940775Y-57618000D01*
X112980775Y-53103000D02*
X112980775Y-54310000D01*
X112980775Y-56390000D02*
X112980775Y-57597000D01*
X113020775Y-53126000D02*
X113020775Y-54310000D01*
X113020775Y-56390000D02*
X113020775Y-57574000D01*
X113060775Y-53150000D02*
X113060775Y-54310000D01*
X113060775Y-56390000D02*
X113060775Y-57550000D01*
X113100775Y-53175000D02*
X113100775Y-54310000D01*
X113100775Y-56390000D02*
X113100775Y-57525000D01*
X113140775Y-53201000D02*
X113140775Y-54310000D01*
X113140775Y-56390000D02*
X113140775Y-57499000D01*
X113180775Y-53228000D02*
X113180775Y-54310000D01*
X113180775Y-56390000D02*
X113180775Y-57472000D01*
X113220775Y-53255000D02*
X113220775Y-54310000D01*
X113220775Y-56390000D02*
X113220775Y-57445000D01*
X113260775Y-53285000D02*
X113260775Y-54310000D01*
X113260775Y-56390000D02*
X113260775Y-57415000D01*
X113300775Y-53315000D02*
X113300775Y-54310000D01*
X113300775Y-56390000D02*
X113300775Y-57385000D01*
X113340775Y-53346000D02*
X113340775Y-54310000D01*
X113340775Y-56390000D02*
X113340775Y-57354000D01*
X113380775Y-53379000D02*
X113380775Y-54310000D01*
X113380775Y-56390000D02*
X113380775Y-57321000D01*
X113420775Y-53413000D02*
X113420775Y-54310000D01*
X113420775Y-56390000D02*
X113420775Y-57287000D01*
X113460775Y-53449000D02*
X113460775Y-54310000D01*
X113460775Y-56390000D02*
X113460775Y-57251000D01*
X113500775Y-53486000D02*
X113500775Y-54310000D01*
X113500775Y-56390000D02*
X113500775Y-57214000D01*
X113540775Y-53524000D02*
X113540775Y-54310000D01*
X113540775Y-56390000D02*
X113540775Y-57176000D01*
X113580775Y-53565000D02*
X113580775Y-54310000D01*
X113580775Y-56390000D02*
X113580775Y-57135000D01*
X113620775Y-53607000D02*
X113620775Y-54310000D01*
X113620775Y-56390000D02*
X113620775Y-57093000D01*
X113660775Y-53651000D02*
X113660775Y-54310000D01*
X113660775Y-56390000D02*
X113660775Y-57049000D01*
X113700775Y-53697000D02*
X113700775Y-54310000D01*
X113700775Y-56390000D02*
X113700775Y-57003000D01*
X113740775Y-53745000D02*
X113740775Y-56955000D01*
X113780775Y-53796000D02*
X113780775Y-56904000D01*
X113820775Y-53850000D02*
X113820775Y-56850000D01*
X113860775Y-53907000D02*
X113860775Y-56793000D01*
X113900775Y-53967000D02*
X113900775Y-56733000D01*
X113940775Y-54031000D02*
X113940775Y-56669000D01*
X113980775Y-54099000D02*
X113980775Y-56601000D01*
X114020775Y-54172000D02*
X114020775Y-56528000D01*
X114060775Y-54252000D02*
X114060775Y-56448000D01*
X114100775Y-54339000D02*
X114100775Y-56361000D01*
X114140775Y-54435000D02*
X114140775Y-56265000D01*
X114180775Y-54545000D02*
X114180775Y-56155000D01*
X114220775Y-54673000D02*
X114220775Y-56027000D01*
X114260775Y-54832000D02*
X114260775Y-55868000D01*
X114300775Y-55066000D02*
X114300775Y-55634000D01*
X114319775Y-55350000D02*
G75*
G02*
X109079775Y-55350000I-2620000J0D01*
G01*
X109079775Y-55350000D02*
G75*
G02*
X114319775Y-55350000I2620000J0D01*
G01*
%TO.C,U3*%
X151060000Y-82030000D02*
X151060000Y-100050000D01*
X151060000Y-100050000D02*
X161560000Y-100050000D01*
X154060000Y-82090000D02*
X154060000Y-99990000D01*
X154060000Y-99990000D02*
X158560000Y-99990000D01*
X155310000Y-82090000D02*
X154060000Y-82090000D01*
X158560000Y-82090000D02*
X157310000Y-82090000D01*
X158560000Y-99990000D02*
X158560000Y-82090000D01*
X161560000Y-82030000D02*
X151060000Y-82030000D01*
X161560000Y-100050000D02*
X161560000Y-82030000D01*
X157310000Y-82090000D02*
G75*
G02*
X155310000Y-82090000I-1000000J0D01*
G01*
%TO.C,Q1*%
X121550000Y-106150000D02*
X125400000Y-106150000D01*
X121133600Y-103351193D02*
G75*
G02*
X123490000Y-101850000I2356400J-1098807D01*
G01*
X121550000Y-106150000D02*
G75*
G02*
X121167369Y-105572045I1940000J1700000D01*
G01*
X123490000Y-101850000D02*
G75*
G02*
X125846400Y-103351193I0J-2600000D01*
G01*
X125792383Y-105562264D02*
G75*
G02*
X125400000Y-106150000I-2302383J1112264D01*
G01*
%TO.C,R2*%
X117580000Y-60100000D02*
X120890000Y-60100000D01*
X120890000Y-58730000D02*
X120890000Y-61470000D01*
X120890000Y-61470000D02*
X127430000Y-61470000D01*
X127430000Y-58730000D02*
X120890000Y-58730000D01*
X127430000Y-61470000D02*
X127430000Y-58730000D01*
X130740000Y-60100000D02*
X127430000Y-60100000D01*
%TO.C,C1*%
X129830000Y-65779000D02*
X129830000Y-66445000D01*
X129830000Y-65779000D02*
X135170000Y-65779000D01*
X129830000Y-68555000D02*
X129830000Y-69221000D01*
X129830000Y-69221000D02*
X135170000Y-69221000D01*
X135170000Y-65779000D02*
X135170000Y-66445000D01*
X135170000Y-68555000D02*
X135170000Y-69221000D01*
%TO.C,R9*%
X185920000Y-65000000D02*
X189230000Y-65000000D01*
X189230000Y-63630000D02*
X189230000Y-66370000D01*
X189230000Y-66370000D02*
X195770000Y-66370000D01*
X195770000Y-63630000D02*
X189230000Y-63630000D01*
X195770000Y-66370000D02*
X195770000Y-63630000D01*
X199080000Y-65000000D02*
X195770000Y-65000000D01*
%TO.C,U2*%
X131240000Y-81495000D02*
X131240000Y-99515000D01*
X131240000Y-99515000D02*
X141740000Y-99515000D01*
X134240000Y-81555000D02*
X134240000Y-99455000D01*
X134240000Y-99455000D02*
X135490000Y-99455000D01*
X137490000Y-99455000D02*
X138740000Y-99455000D01*
X138740000Y-81555000D02*
X134240000Y-81555000D01*
X138740000Y-99455000D02*
X138740000Y-81555000D01*
X141740000Y-81495000D02*
X131240000Y-81495000D01*
X141740000Y-99515000D02*
X141740000Y-81495000D01*
X135490000Y-99455000D02*
G75*
G02*
X137490000Y-99455000I1000000J0D01*
G01*
%TO.C,U5*%
X151260000Y-42485000D02*
X151260000Y-60505000D01*
X151260000Y-60505000D02*
X161760000Y-60505000D01*
X154260000Y-42545000D02*
X154260000Y-60445000D01*
X154260000Y-60445000D02*
X158760000Y-60445000D01*
X155510000Y-42545000D02*
X154260000Y-42545000D01*
X158760000Y-42545000D02*
X157510000Y-42545000D01*
X158760000Y-60445000D02*
X158760000Y-42545000D01*
X161760000Y-42485000D02*
X151260000Y-42485000D01*
X161760000Y-60505000D02*
X161760000Y-42485000D01*
X157510000Y-42545000D02*
G75*
G02*
X155510000Y-42545000I-1000000J0D01*
G01*
%TO.C,R8*%
X167920000Y-59500000D02*
X171230000Y-59500000D01*
X171230000Y-58130000D02*
X171230000Y-60870000D01*
X171230000Y-60870000D02*
X177770000Y-60870000D01*
X177770000Y-58130000D02*
X171230000Y-58130000D01*
X177770000Y-60870000D02*
X177770000Y-58130000D01*
X181080000Y-59500000D02*
X177770000Y-59500000D01*
%TO.C,D2*%
X119260000Y-50000000D02*
X120280000Y-50000000D01*
X120280000Y-48530000D02*
X120280000Y-51470000D01*
X120280000Y-51470000D02*
X125720000Y-51470000D01*
X121060000Y-48530000D02*
X121060000Y-51470000D01*
X121180000Y-48530000D02*
X121180000Y-51470000D01*
X121300000Y-48530000D02*
X121300000Y-51470000D01*
X125720000Y-48530000D02*
X120280000Y-48530000D01*
X125720000Y-51470000D02*
X125720000Y-48530000D01*
X126740000Y-50000000D02*
X125720000Y-50000000D01*
%TO.C,C2*%
X108895000Y-47325000D02*
X109395000Y-47325000D01*
X109145000Y-47075000D02*
X109145000Y-47575000D01*
X111699775Y-46220000D02*
X111699775Y-47760000D01*
X111699775Y-49840000D02*
X111699775Y-51380000D01*
X111739775Y-46220000D02*
X111739775Y-47760000D01*
X111739775Y-49840000D02*
X111739775Y-51380000D01*
X111779775Y-46221000D02*
X111779775Y-47760000D01*
X111779775Y-49840000D02*
X111779775Y-51379000D01*
X111819775Y-46222000D02*
X111819775Y-47760000D01*
X111819775Y-49840000D02*
X111819775Y-51378000D01*
X111859775Y-46224000D02*
X111859775Y-47760000D01*
X111859775Y-49840000D02*
X111859775Y-51376000D01*
X111899775Y-46227000D02*
X111899775Y-47760000D01*
X111899775Y-49840000D02*
X111899775Y-51373000D01*
X111939775Y-46231000D02*
X111939775Y-47760000D01*
X111939775Y-49840000D02*
X111939775Y-51369000D01*
X111979775Y-46235000D02*
X111979775Y-47760000D01*
X111979775Y-49840000D02*
X111979775Y-51365000D01*
X112019775Y-46239000D02*
X112019775Y-47760000D01*
X112019775Y-49840000D02*
X112019775Y-51361000D01*
X112059775Y-46244000D02*
X112059775Y-47760000D01*
X112059775Y-49840000D02*
X112059775Y-51356000D01*
X112099775Y-46250000D02*
X112099775Y-47760000D01*
X112099775Y-49840000D02*
X112099775Y-51350000D01*
X112139775Y-46257000D02*
X112139775Y-47760000D01*
X112139775Y-49840000D02*
X112139775Y-51343000D01*
X112179775Y-46264000D02*
X112179775Y-47760000D01*
X112179775Y-49840000D02*
X112179775Y-51336000D01*
X112219775Y-46272000D02*
X112219775Y-47760000D01*
X112219775Y-49840000D02*
X112219775Y-51328000D01*
X112259775Y-46280000D02*
X112259775Y-47760000D01*
X112259775Y-49840000D02*
X112259775Y-51320000D01*
X112299775Y-46289000D02*
X112299775Y-47760000D01*
X112299775Y-49840000D02*
X112299775Y-51311000D01*
X112339775Y-46299000D02*
X112339775Y-47760000D01*
X112339775Y-49840000D02*
X112339775Y-51301000D01*
X112379775Y-46309000D02*
X112379775Y-47760000D01*
X112379775Y-49840000D02*
X112379775Y-51291000D01*
X112420775Y-46320000D02*
X112420775Y-47760000D01*
X112420775Y-49840000D02*
X112420775Y-51280000D01*
X112460775Y-46332000D02*
X112460775Y-47760000D01*
X112460775Y-49840000D02*
X112460775Y-51268000D01*
X112500775Y-46345000D02*
X112500775Y-47760000D01*
X112500775Y-49840000D02*
X112500775Y-51255000D01*
X112540775Y-46358000D02*
X112540775Y-47760000D01*
X112540775Y-49840000D02*
X112540775Y-51242000D01*
X112580775Y-46372000D02*
X112580775Y-47760000D01*
X112580775Y-49840000D02*
X112580775Y-51228000D01*
X112620775Y-46386000D02*
X112620775Y-47760000D01*
X112620775Y-49840000D02*
X112620775Y-51214000D01*
X112660775Y-46402000D02*
X112660775Y-47760000D01*
X112660775Y-49840000D02*
X112660775Y-51198000D01*
X112700775Y-46418000D02*
X112700775Y-47760000D01*
X112700775Y-49840000D02*
X112700775Y-51182000D01*
X112740775Y-46435000D02*
X112740775Y-47760000D01*
X112740775Y-49840000D02*
X112740775Y-51165000D01*
X112780775Y-46452000D02*
X112780775Y-47760000D01*
X112780775Y-49840000D02*
X112780775Y-51148000D01*
X112820775Y-46471000D02*
X112820775Y-47760000D01*
X112820775Y-49840000D02*
X112820775Y-51129000D01*
X112860775Y-46490000D02*
X112860775Y-47760000D01*
X112860775Y-49840000D02*
X112860775Y-51110000D01*
X112900775Y-46510000D02*
X112900775Y-47760000D01*
X112900775Y-49840000D02*
X112900775Y-51090000D01*
X112940775Y-46532000D02*
X112940775Y-47760000D01*
X112940775Y-49840000D02*
X112940775Y-51068000D01*
X112980775Y-46553000D02*
X112980775Y-47760000D01*
X112980775Y-49840000D02*
X112980775Y-51047000D01*
X113020775Y-46576000D02*
X113020775Y-47760000D01*
X113020775Y-49840000D02*
X113020775Y-51024000D01*
X113060775Y-46600000D02*
X113060775Y-47760000D01*
X113060775Y-49840000D02*
X113060775Y-51000000D01*
X113100775Y-46625000D02*
X113100775Y-47760000D01*
X113100775Y-49840000D02*
X113100775Y-50975000D01*
X113140775Y-46651000D02*
X113140775Y-47760000D01*
X113140775Y-49840000D02*
X113140775Y-50949000D01*
X113180775Y-46678000D02*
X113180775Y-47760000D01*
X113180775Y-49840000D02*
X113180775Y-50922000D01*
X113220775Y-46705000D02*
X113220775Y-47760000D01*
X113220775Y-49840000D02*
X113220775Y-50895000D01*
X113260775Y-46735000D02*
X113260775Y-47760000D01*
X113260775Y-49840000D02*
X113260775Y-50865000D01*
X113300775Y-46765000D02*
X113300775Y-47760000D01*
X113300775Y-49840000D02*
X113300775Y-50835000D01*
X113340775Y-46796000D02*
X113340775Y-47760000D01*
X113340775Y-49840000D02*
X113340775Y-50804000D01*
X113380775Y-46829000D02*
X113380775Y-47760000D01*
X113380775Y-49840000D02*
X113380775Y-50771000D01*
X113420775Y-46863000D02*
X113420775Y-47760000D01*
X113420775Y-49840000D02*
X113420775Y-50737000D01*
X113460775Y-46899000D02*
X113460775Y-47760000D01*
X113460775Y-49840000D02*
X113460775Y-50701000D01*
X113500775Y-46936000D02*
X113500775Y-47760000D01*
X113500775Y-49840000D02*
X113500775Y-50664000D01*
X113540775Y-46974000D02*
X113540775Y-47760000D01*
X113540775Y-49840000D02*
X113540775Y-50626000D01*
X113580775Y-47015000D02*
X113580775Y-47760000D01*
X113580775Y-49840000D02*
X113580775Y-50585000D01*
X113620775Y-47057000D02*
X113620775Y-47760000D01*
X113620775Y-49840000D02*
X113620775Y-50543000D01*
X113660775Y-47101000D02*
X113660775Y-47760000D01*
X113660775Y-49840000D02*
X113660775Y-50499000D01*
X113700775Y-47147000D02*
X113700775Y-47760000D01*
X113700775Y-49840000D02*
X113700775Y-50453000D01*
X113740775Y-47195000D02*
X113740775Y-50405000D01*
X113780775Y-47246000D02*
X113780775Y-50354000D01*
X113820775Y-47300000D02*
X113820775Y-50300000D01*
X113860775Y-47357000D02*
X113860775Y-50243000D01*
X113900775Y-47417000D02*
X113900775Y-50183000D01*
X113940775Y-47481000D02*
X113940775Y-50119000D01*
X113980775Y-47549000D02*
X113980775Y-50051000D01*
X114020775Y-47622000D02*
X114020775Y-49978000D01*
X114060775Y-47702000D02*
X114060775Y-49898000D01*
X114100775Y-47789000D02*
X114100775Y-49811000D01*
X114140775Y-47885000D02*
X114140775Y-49715000D01*
X114180775Y-47995000D02*
X114180775Y-49605000D01*
X114220775Y-48123000D02*
X114220775Y-49477000D01*
X114260775Y-48282000D02*
X114260775Y-49318000D01*
X114300775Y-48516000D02*
X114300775Y-49084000D01*
X114319775Y-48800000D02*
G75*
G02*
X109079775Y-48800000I-2620000J0D01*
G01*
X109079775Y-48800000D02*
G75*
G02*
X114319775Y-48800000I2620000J0D01*
G01*
%TO.C,R4*%
X172920000Y-97500000D02*
X176230000Y-97500000D01*
X176230000Y-96130000D02*
X176230000Y-98870000D01*
X176230000Y-98870000D02*
X182770000Y-98870000D01*
X182770000Y-96130000D02*
X176230000Y-96130000D01*
X182770000Y-98870000D02*
X182770000Y-96130000D01*
X186080000Y-97500000D02*
X182770000Y-97500000D01*
%TO.C,R10*%
X160920000Y-66500000D02*
X164230000Y-66500000D01*
X164230000Y-65130000D02*
X164230000Y-67870000D01*
X164230000Y-67870000D02*
X170770000Y-67870000D01*
X170770000Y-65130000D02*
X164230000Y-65130000D01*
X170770000Y-67870000D02*
X170770000Y-65130000D01*
X174080000Y-66500000D02*
X170770000Y-66500000D01*
%TO.C,U6*%
X188260000Y-42485000D02*
X188260000Y-60505000D01*
X188260000Y-60505000D02*
X198760000Y-60505000D01*
X191260000Y-42545000D02*
X191260000Y-60445000D01*
X191260000Y-60445000D02*
X195760000Y-60445000D01*
X192510000Y-42545000D02*
X191260000Y-42545000D01*
X195760000Y-42545000D02*
X194510000Y-42545000D01*
X195760000Y-60445000D02*
X195760000Y-42545000D01*
X198760000Y-42485000D02*
X188260000Y-42485000D01*
X198760000Y-60505000D02*
X198760000Y-42485000D01*
X194510000Y-42545000D02*
G75*
G02*
X192510000Y-42545000I-1000000J0D01*
G01*
%TO.C,R5*%
X173420000Y-103500000D02*
X176730000Y-103500000D01*
X176730000Y-102130000D02*
X176730000Y-104870000D01*
X176730000Y-104870000D02*
X183270000Y-104870000D01*
X183270000Y-102130000D02*
X176730000Y-102130000D01*
X183270000Y-104870000D02*
X183270000Y-102130000D01*
X186580000Y-103500000D02*
X183270000Y-103500000D01*
%TO.C,R3*%
X173420000Y-91500000D02*
X176730000Y-91500000D01*
X176730000Y-90130000D02*
X176730000Y-92870000D01*
X176730000Y-92870000D02*
X183270000Y-92870000D01*
X183270000Y-90130000D02*
X176730000Y-90130000D01*
X183270000Y-92870000D02*
X183270000Y-90130000D01*
X186580000Y-91500000D02*
X183270000Y-91500000D01*
%TO.C,D1*%
X119260000Y-45000000D02*
X120280000Y-45000000D01*
X120280000Y-43530000D02*
X120280000Y-46470000D01*
X120280000Y-46470000D02*
X125720000Y-46470000D01*
X121060000Y-43530000D02*
X121060000Y-46470000D01*
X121180000Y-43530000D02*
X121180000Y-46470000D01*
X121300000Y-43530000D02*
X121300000Y-46470000D01*
X125720000Y-43530000D02*
X120280000Y-43530000D01*
X125720000Y-46470000D02*
X125720000Y-43530000D01*
X126740000Y-45000000D02*
X125720000Y-45000000D01*
%TO.C,R7*%
X168420000Y-54000000D02*
X171730000Y-54000000D01*
X171730000Y-52630000D02*
X171730000Y-55370000D01*
X171730000Y-55370000D02*
X178270000Y-55370000D01*
X178270000Y-52630000D02*
X171730000Y-52630000D01*
X178270000Y-55370000D02*
X178270000Y-52630000D01*
X181580000Y-54000000D02*
X178270000Y-54000000D01*
%TO.C,R1*%
X118920000Y-55000000D02*
X122230000Y-55000000D01*
X122230000Y-53630000D02*
X122230000Y-56370000D01*
X122230000Y-56370000D02*
X128770000Y-56370000D01*
X128770000Y-53630000D02*
X122230000Y-53630000D01*
X128770000Y-56370000D02*
X128770000Y-53630000D01*
X132080000Y-55000000D02*
X128770000Y-55000000D01*
%TO.C,U4*%
X112260000Y-80985000D02*
X112260000Y-99005000D01*
X112260000Y-99005000D02*
X122760000Y-99005000D01*
X115260000Y-81045000D02*
X115260000Y-98945000D01*
X115260000Y-98945000D02*
X119760000Y-98945000D01*
X116510000Y-81045000D02*
X115260000Y-81045000D01*
X119760000Y-81045000D02*
X118510000Y-81045000D01*
X119760000Y-98945000D02*
X119760000Y-81045000D01*
X122760000Y-80985000D02*
X112260000Y-80985000D01*
X122760000Y-99005000D02*
X122760000Y-80985000D01*
X118510000Y-81045000D02*
G75*
G02*
X116510000Y-81045000I-1000000J0D01*
G01*
%TO.C,C4*%
X180330000Y-82279000D02*
X180330000Y-82945000D01*
X180330000Y-82279000D02*
X185670000Y-82279000D01*
X180330000Y-85055000D02*
X180330000Y-85721000D01*
X180330000Y-85721000D02*
X185670000Y-85721000D01*
X185670000Y-82279000D02*
X185670000Y-82945000D01*
X185670000Y-85055000D02*
X185670000Y-85721000D01*
%TO.C,J1*%
X89170000Y-45130000D02*
X90500000Y-45130000D01*
X89170000Y-46460000D02*
X89170000Y-45130000D01*
X89170000Y-47730000D02*
X89170000Y-65570000D01*
X89170000Y-47730000D02*
X91830000Y-47730000D01*
X89170000Y-65570000D02*
X91830000Y-65570000D01*
X91830000Y-47730000D02*
X91830000Y-65570000D01*
%TO.C,R6*%
X168920000Y-44500000D02*
X172230000Y-44500000D01*
X172230000Y-43130000D02*
X172230000Y-45870000D01*
X172230000Y-45870000D02*
X178770000Y-45870000D01*
X178770000Y-43130000D02*
X172230000Y-43130000D01*
X178770000Y-45870000D02*
X178770000Y-43130000D01*
X182080000Y-44500000D02*
X178770000Y-44500000D01*
%TD*%
M02*
